<svg width="41" height="40" viewBox="0 0 41 40" fill="none" xmlns="http://www.w3.org/2000/svg">
<g clip-path="url(#clip0_131_136)">
<path d="M30.5 0H10.5C4.97715 0 0.5 4.47715 0.5 10V30C0.5 35.5228 4.97715 40 10.5 40H30.5C36.0228 40 40.5 35.5228 40.5 30V10C40.5 4.47715 36.0228 0 30.5 0Z" fill="#F7F7F8"/>
<path d="M20.7304 26.0998L14.7704 29.7198C14.6307 29.802 14.47 29.8415 14.3082 29.8334C14.1463 29.8253 13.9903 29.77 13.8595 29.6742C13.7287 29.5785 13.6288 29.4466 13.5721 29.2948C13.5154 29.143 13.5044 28.9779 13.5404 28.8198L15.1404 22.0398L9.86043 17.4998C9.73863 17.3929 9.65081 17.2526 9.60783 17.0963C9.56485 16.94 9.56858 16.7745 9.61857 16.6203C9.66855 16.4661 9.7626 16.3299 9.88911 16.2285C10.0156 16.1271 10.169 16.065 10.3304 16.0498L17.2804 15.4798L19.9704 9.03984C20.0352 8.89224 20.1416 8.7667 20.2766 8.67855C20.4115 8.5904 20.5692 8.54346 20.7304 8.54346C20.8916 8.54346 21.0493 8.5904 21.1843 8.67855C21.3193 8.7667 21.4256 8.89224 21.4904 9.03984L24.1904 15.4798L31.1304 16.0498C31.2918 16.065 31.4452 16.1271 31.5718 16.2285C31.6983 16.3299 31.7923 16.4661 31.8423 16.6203C31.8923 16.7745 31.896 16.94 31.853 17.0963C31.8101 17.2526 31.7222 17.3929 31.6004 17.4998L26.3204 22.0398L27.9204 28.8298C27.9565 28.9879 27.9455 29.153 27.8888 29.3048C27.8321 29.4566 27.7321 29.5885 27.6013 29.6842C27.4705 29.7799 27.3146 29.8353 27.1527 29.8434C26.9908 29.8515 26.8301 29.812 26.6904 29.7298L20.7304 26.0998ZM21.3004 23.8698L25.0204 26.1298L24.0204 21.8998C23.9204 21.4998 24.0604 21.0798 24.3704 20.7998L27.6704 17.9698L23.3304 17.6198C23.1306 17.6027 22.9392 17.5312 22.777 17.4131C22.6149 17.295 22.4881 17.1348 22.4104 16.9498L20.7304 12.9398L19.0504 16.9398C18.9742 17.1267 18.8481 17.2889 18.6858 17.4089C18.5235 17.5288 18.3314 17.6018 18.1304 17.6198L13.7904 17.9698L17.0904 20.8098C17.4004 21.0798 17.5404 21.4998 17.4404 21.8998L16.4404 26.1298L20.1604 23.8698C20.3323 23.7657 20.5295 23.7106 20.7304 23.7106C20.9314 23.7106 21.1285 23.7657 21.3004 23.8698Z" fill="black" fill-opacity="0.85"/>
</g>
<defs>
<clipPath id="clip0_131_136">
<rect width="41" height="40" fill="white"/>
</clipPath>
</defs>
</svg>
