<svg width="40" height="40" viewBox="0 0 40 40" fill="none" xmlns="http://www.w3.org/2000/svg">
<g clip-path="url(#clip0_131_139)">
<path d="M30 0H10C4.47715 0 0 4.47715 0 10V30C0 35.5228 4.47715 40 10 40H30C35.5228 40 40 35.5228 40 30V10C40 4.47715 35.5228 0 30 0Z" fill="#F7F7F8"/>
<path fill-rule="evenodd" clip-rule="evenodd" d="M23 19C22.1137 18.9993 21.2528 18.7043 20.5523 18.1614C19.8519 17.6184 19.3516 16.8581 19.13 16H11C10.7348 16 10.4804 15.8946 10.2929 15.7071C10.1054 15.5196 10 15.2652 10 15C10 14.7348 10.1054 14.4804 10.2929 14.2929C10.4804 14.1053 10.7348 14 11 14H19.13C19.3537 13.144 19.8549 12.3863 20.5552 11.8456C21.2555 11.3048 22.1152 11.0115 23 11.0115C23.8848 11.0115 24.7445 11.3048 25.4448 11.8456C26.1451 12.3863 26.6463 13.144 26.87 14H29C29.2652 14 29.5196 14.1053 29.7071 14.2929C29.8946 14.4804 30 14.7348 30 15C30 15.2652 29.8946 15.5196 29.7071 15.7071C29.5196 15.8946 29.2652 16 29 16H26.87C26.6484 16.8581 26.1481 17.6184 25.4477 18.1614C24.7472 18.7043 23.8863 18.9993 23 19ZM11 24C10.7348 24 10.4804 24.1053 10.2929 24.2929C10.1054 24.4804 10 24.7348 10 25C10 25.2652 10.1054 25.5196 10.2929 25.7071C10.4804 25.8946 10.7348 26 11 26H13.13C13.3537 26.856 13.8549 27.6137 14.5552 28.1544C15.2555 28.6952 16.1152 28.9885 17 28.9885C17.8848 28.9885 18.7445 28.6952 19.4448 28.1544C20.1451 27.6137 20.6463 26.856 20.87 26H29C29.2652 26 29.5196 25.8946 29.7071 25.7071C29.8946 25.5196 30 25.2652 30 25C30 24.7348 29.8946 24.4804 29.7071 24.2929C29.5196 24.1053 29.2652 24 29 24H20.87C20.6463 23.144 20.1451 22.3863 19.4448 21.8456C18.7445 21.3048 17.8848 21.0115 17 21.0115C16.1152 21.0115 15.2555 21.3048 14.5552 21.8456C13.8549 22.3863 13.3537 23.144 13.13 24H11ZM23 17C23.5304 17 24.0391 16.7893 24.4142 16.4142C24.7893 16.0391 25 15.5304 25 15C25 14.4696 24.7893 13.9609 24.4142 13.5858C24.0391 13.2107 23.5304 13 23 13C22.4696 13 21.9609 13.2107 21.5858 13.5858C21.2107 13.9609 21 14.4696 21 15C21 15.5304 21.2107 16.0391 21.5858 16.4142C21.9609 16.7893 22.4696 17 23 17ZM19 25C19 25.5304 18.7893 26.0391 18.4142 26.4142C18.0391 26.7893 17.5304 27 17 27C16.4696 27 15.9609 26.7893 15.5858 26.4142C15.2107 26.0391 15 25.5304 15 25C15 24.4696 15.2107 23.9608 15.5858 23.5858C15.9609 23.2107 16.4696 23 17 23C17.5304 23 18.0391 23.2107 18.4142 23.5858C18.7893 23.9608 19 24.4696 19 25Z" fill="black" fill-opacity="0.85"/>
</g>
<defs>
<clipPath id="clip0_131_139">
<rect width="40" height="40" fill="white"/>
</clipPath>
</defs>
</svg>
