<svg width="40" height="40" viewBox="0 0 40 40" fill="none" xmlns="http://www.w3.org/2000/svg">
<g clip-path="url(#clip0_131_150)">
<path d="M30 0H10C4.47715 0 0 4.47715 0 10V30C0 35.5228 4.47715 40 10 40H30C35.5228 40 40 35.5228 40 30V10C40 4.47715 35.5228 0 30 0Z" fill="#F7F7F8"/>
<path fill-rule="evenodd" clip-rule="evenodd" d="M12.7199 13.72L13.2299 13.22C13.3283 13.118 13.4623 13.058 13.6039 13.0524C13.7455 13.0468 13.8838 13.0961 13.9899 13.19L15.1499 14.21C15.3986 14.4432 15.7093 14.5996 16.0447 14.6604C16.3801 14.7213 16.7259 14.684 17.0407 14.553C17.3554 14.4221 17.6256 14.203 17.8188 13.9222C18.012 13.6414 18.1201 13.3107 18.1299 12.97L18.2299 11.43C18.24 11.2912 18.3024 11.1613 18.4045 11.0667C18.5066 10.972 18.6407 10.9196 18.7799 10.92H20.2199C20.5099 10.92 20.7499 11.14 20.7699 11.43L20.8699 12.97C20.8855 13.4307 21.0803 13.8671 21.4127 14.1864C21.7451 14.5058 22.189 14.6829 22.6499 14.68C23.1199 14.68 23.5499 14.5 23.8699 14.2L25.0199 13.2C25.1242 13.1078 25.2597 13.0585 25.3989 13.0623C25.5381 13.066 25.6707 13.1223 25.7699 13.22L26.2699 13.72L26.7799 14.23C26.879 14.3279 26.9372 14.4599 26.9427 14.5991C26.9483 14.7383 26.9008 14.8744 26.8099 14.98L25.7899 16.14C25.4899 16.46 25.3199 16.89 25.3199 17.35C25.317 17.8093 25.4927 18.2517 25.8099 18.5839C26.1271 18.916 26.561 19.1118 27.0199 19.13L28.5699 19.23C28.7088 19.2401 28.8386 19.3025 28.9332 19.4046C29.0279 19.5066 29.0803 19.6408 29.0799 19.78V21.22C29.0799 21.51 28.8599 21.75 28.5699 21.77L27.0299 21.87C26.5817 21.8863 26.1564 22.0721 25.8399 22.39C25.5112 22.7139 25.3221 23.1534 25.3127 23.6148C25.3034 24.0762 25.4746 24.523 25.7899 24.86L26.8099 26.02C26.9008 26.1256 26.9483 26.2617 26.9427 26.4009C26.9372 26.5401 26.879 26.672 26.7799 26.77L26.2799 27.27L25.7699 27.78C25.672 27.879 25.54 27.9372 25.4008 27.9428C25.2616 27.9484 25.1255 27.9009 25.0199 27.81L23.8999 26.83C23.567 26.5015 23.1176 26.3182 22.6499 26.32C22.189 26.3171 21.7451 26.4942 21.4127 26.8135C21.0803 27.1329 20.8855 27.5693 20.8699 28.03L20.7699 29.57C20.7604 29.7038 20.7022 29.8295 20.6064 29.9234C20.5107 30.0173 20.3839 30.073 20.2499 30.08H18.7499C18.616 30.073 18.4892 30.0173 18.3934 29.9234C18.2976 29.8295 18.2395 29.7038 18.2299 29.57L18.1299 28.03C18.1161 27.5783 17.9301 27.1489 17.6099 26.83C17.4439 26.6661 17.2471 26.5367 17.0308 26.4492C16.8146 26.3617 16.5832 26.3178 16.3499 26.32C15.8699 26.32 15.4299 26.52 15.1099 26.82L13.9799 27.81C13.8744 27.9009 13.7382 27.9484 13.599 27.9428C13.4598 27.9372 13.3279 27.879 13.2299 27.78L12.7299 27.28L12.2199 26.78C12.118 26.6816 12.058 26.5476 12.0524 26.406C12.0468 26.2644 12.0961 26.1261 12.1899 26.02L13.2099 24.86C13.5252 24.523 13.6965 24.0762 13.6871 23.6148C13.6778 23.1534 13.4886 22.7139 13.1599 22.39C12.8435 22.0721 12.4181 21.8863 11.9699 21.87L10.4299 21.77C10.2911 21.7599 10.1613 21.6975 10.0666 21.5954C9.97198 21.4933 9.91956 21.3592 9.91992 21.22V19.79C9.91992 19.49 10.1399 19.25 10.4299 19.24L11.9699 19.14V19.13C12.4216 19.1162 12.851 18.9302 13.1699 18.61C13.4936 18.2822 13.6775 17.8417 13.6831 17.381C13.6887 16.9204 13.5155 16.4756 13.1999 16.14L12.1999 14.98C12.1077 14.8757 12.0585 14.7402 12.0622 14.601C12.0659 14.4619 12.1223 14.3292 12.2199 14.23L12.7199 13.73V13.72ZM23.6099 20.5C23.6099 21.59 23.1769 22.6354 22.4061 23.4062C21.6354 24.177 20.59 24.61 19.4999 24.61C18.4099 24.61 17.3645 24.177 16.5937 23.4062C15.8229 22.6354 15.3899 21.59 15.3899 20.5C15.3899 19.4099 15.8229 18.3646 16.5937 17.5938C17.3645 16.823 18.4099 16.39 19.4999 16.39C20.59 16.39 21.6354 16.823 22.4061 17.5938C23.1769 18.3646 23.6099 19.4099 23.6099 20.5Z" fill="black" fill-opacity="0.85"/>
</g>
<defs>
<clipPath id="clip0_131_150">
<rect width="40" height="40" fill="white"/>
</clipPath>
</defs>
</svg>
