<svg width="41" height="40" viewBox="0 0 41 40" fill="none" xmlns="http://www.w3.org/2000/svg">
<g clip-path="url(#clip0_131_145)">
<path d="M30.5 0H10.5C4.97715 0 0.5 4.47715 0.5 10V30C0.5 35.5228 4.97715 40 10.5 40H30.5C36.0228 40 40.5 35.5228 40.5 30V10C40.5 4.47715 36.0228 0 30.5 0Z" fill="#F7F7F8"/>
<path d="M28 16H14C12.8954 16 12 16.8954 12 18V26C12 27.1046 12.8954 28 14 28H28C29.1046 28 30 27.1046 30 26V18C30 16.8954 29.1046 16 28 16Z" stroke="black" stroke-opacity="0.85" stroke-width="2"/>
<path d="M28 16H14C12.8954 16 12 16.8954 12 18C12 19.1046 12.8954 20 14 20H28C29.1046 20 30 19.1046 30 18C30 16.8954 29.1046 16 28 16Z" stroke="black" stroke-opacity="0.85" stroke-width="2"/>
<path d="M20 12H22C22.5304 12 23.0391 12.2107 23.4142 12.5858C23.7893 12.9609 24 13.4696 24 14V16H18V14C18 13.4696 18.2107 12.9609 18.5858 12.5858C18.9609 12.2107 19.4696 12 20 12Z" stroke="black" stroke-opacity="0.85" stroke-width="2"/>
</g>
<defs>
<clipPath id="clip0_131_145">
<rect width="41" height="40" fill="white"/>
</clipPath>
</defs>
</svg>
