<svg width="41" height="40" viewBox="0 0 41 40" fill="none" xmlns="http://www.w3.org/2000/svg">
<g clip-path="url(#clip0_131_142)">
<path d="M30.5 0H10.5C4.97715 0 0.5 4.47715 0.5 10V30C0.5 35.5228 4.97715 40 10.5 40H30.5C36.0228 40 40.5 35.5228 40.5 30V10C40.5 4.47715 36.0228 0 30.5 0Z" fill="#F7F7F8"/>
<path fill-rule="evenodd" clip-rule="evenodd" d="M27.69 10.09C28.21 10.34 28.82 10.7 29.31 11.19C29.81 11.69 30.16 12.29 30.41 12.82C30.73 13.47 30.52 14.22 30.01 14.74L22.8 21.94C22.49 22.26 22.1 22.49 21.7 22.62L17.47 23.98C17.3382 24.022 17.1974 24.0268 17.0631 23.9938C16.9288 23.9608 16.8062 23.8913 16.7089 23.793C16.6117 23.6946 16.5435 23.5714 16.5119 23.4367C16.4803 23.302 16.4866 23.1613 16.53 23.03L17.88 18.81C18.01 18.39 18.24 18.01 18.55 17.71L25.77 10.49C26.28 9.98997 27.03 9.77997 27.69 10.09ZM27.89 12.61C27.6458 12.3757 27.3697 12.1771 27.07 12.02L20.07 19.02C20.0026 19.0881 19.9454 19.1656 19.9 19.25L18.4 22.1L21.25 20.6C21.3398 20.5586 21.4212 20.501 21.49 20.43L28.49 13.43C28.3297 13.1297 28.1277 12.8537 27.89 12.61ZM13.5 13.5C13.4998 13.3724 13.5483 13.2496 13.6357 13.1566C13.7231 13.0637 13.8427 13.0076 13.97 13H19.5C19.7652 13 20.0196 12.8946 20.2071 12.7071C20.3946 12.5195 20.5 12.2652 20.5 12C20.5 11.7348 20.3946 11.4804 20.2071 11.2929C20.0196 11.1053 19.7652 11 19.5 11H14C13.337 11 12.7011 11.2634 12.2322 11.7322C11.7634 12.201 11.5 12.8369 11.5 13.5V26.08C11.5 26.84 11.58 27.26 11.82 27.7C12.04 28.12 12.38 28.46 12.8 28.68C13.24 28.92 13.66 29 14.42 29H26.58C27.34 29 27.76 28.92 28.21 28.68C28.62 28.46 28.96 28.12 29.18 27.7C29.42 27.26 29.5 26.84 29.5 26.08V21C29.5 20.7348 29.3946 20.4804 29.2071 20.2929C29.0196 20.1053 28.7652 20 28.5 20C28.2348 20 27.9804 20.1053 27.7929 20.2929C27.6054 20.4804 27.5 20.7348 27.5 21V26.08C27.5 26.54 27.48 26.65 27.42 26.76C27.3853 26.8291 27.3291 26.8852 27.26 26.92C27.15 26.98 27.04 27 26.58 27H14.42C13.96 27 13.85 26.98 13.74 26.92C13.6709 26.8852 13.6148 26.8291 13.58 26.76C13.52 26.65 13.5 26.54 13.5 26.08V13.5Z" fill="black" fill-opacity="0.85"/>
</g>
<defs>
<clipPath id="clip0_131_142">
<rect width="41" height="40" fill="white"/>
</clipPath>
</defs>
</svg>
