<svg width="41" height="40" viewBox="0 0 41 40" fill="none" xmlns="http://www.w3.org/2000/svg">
<g clip-path="url(#clip0_252_109)">
<path d="M30.5 0H10.5C4.97715 0 0.5 4.47715 0.5 10V30C0.5 35.5228 4.97715 40 10.5 40H30.5C36.0228 40 40.5 35.5228 40.5 30V10C40.5 4.47715 36.0228 0 30.5 0Z" fill="#F7F7F8"/>
<path d="M15.5406 15.0407C15.3859 15.1946 15.2804 15.3909 15.2376 15.6049C15.1948 15.8189 15.2166 16.0407 15.3002 16.2423C15.3839 16.4438 15.5255 16.6159 15.7072 16.7367C15.8889 16.8575 16.1024 16.9216 16.3206 16.9207H25.1406C25.4324 16.9207 25.7122 16.8048 25.9185 16.5985C26.1247 16.3922 26.2406 16.1124 26.2406 15.8207C26.2406 15.529 26.1247 15.2492 25.9185 15.0429C25.7122 14.8366 25.4324 14.7207 25.1406 14.7207H16.3206C16.0206 14.7207 15.7506 14.8307 15.5406 15.0407ZM15.5406 19.4407C15.3788 19.5933 15.267 19.7914 15.2201 20.0089C15.1731 20.2264 15.1932 20.4529 15.2777 20.6587C15.3622 20.8645 15.5071 21.0399 15.6933 21.1616C15.8795 21.2834 16.0982 21.3458 16.3206 21.3407H25.1406C25.4337 21.3407 25.7148 21.2243 25.922 21.0171C26.1292 20.8098 26.2456 20.5288 26.2456 20.2357C26.2456 19.9426 26.1292 19.6616 25.922 19.4544C25.7148 19.2471 25.4337 19.1307 25.1406 19.1307H16.3206C16.0206 19.1307 15.7506 19.2407 15.5406 19.4507V19.4407ZM15.5406 23.8607C15.7406 23.6607 16.0306 23.5407 16.3206 23.5407H19.6206C19.9124 23.5407 20.1922 23.6566 20.3985 23.8629C20.6047 24.0692 20.7206 24.349 20.7206 24.6407C20.7206 24.9324 20.6047 25.2122 20.3985 25.4185C20.1922 25.6248 19.9124 25.7407 19.6206 25.7407H16.3206C16.1024 25.7416 15.8889 25.6775 15.7072 25.5567C15.5255 25.4359 15.3839 25.2638 15.3002 25.0623C15.2166 24.8607 15.1948 24.6389 15.2376 24.4249C15.2804 24.2109 15.3859 24.0146 15.5406 23.8607Z" fill="black" fill-opacity="0.85"/>
<path fill-rule="evenodd" clip-rule="evenodd" d="M27.5603 10.3403C27.9903 10.3803 28.4203 10.4603 28.8403 10.6703C29.4586 10.9839 29.9624 11.4842 30.2803 12.1003C30.5003 12.5303 30.5803 12.9603 30.6103 13.4003C30.6503 13.8103 30.6503 14.3103 30.6503 14.9003V25.5603C30.6503 26.1403 30.6503 26.6503 30.6103 27.0603C30.5803 27.4903 30.5003 27.9203 30.2803 28.3403C29.9667 28.9586 29.4664 29.4624 28.8503 29.7803C28.4303 30.0003 27.9903 30.0803 27.5503 30.1203C27.1503 30.1503 26.6503 30.1503 26.0603 30.1503H15.4003C14.8203 30.1503 14.3203 30.1503 13.9003 30.1103C13.4591 30.087 13.0271 29.9747 12.6303 29.7803C12.0083 29.4684 11.5008 28.9679 11.1803 28.3503C10.9703 27.9303 10.8803 27.4903 10.8503 27.0503C10.8203 26.6503 10.8203 26.1503 10.8203 25.5603V14.9003C10.8203 14.3203 10.8203 13.8203 10.8503 13.4003C10.8903 12.9803 10.9703 12.5403 11.1803 12.1303C11.4948 11.5068 11.999 10.9991 12.6203 10.6803C13.0403 10.4703 13.4703 10.3803 13.9103 10.3503C14.3203 10.3203 14.8203 10.3203 15.4103 10.3203H26.0703C26.6503 10.3203 27.1503 10.3203 27.5703 10.3503L27.5603 10.3403ZM26.0203 12.5103C26.6503 12.5103 27.0603 12.5103 27.3703 12.5403C27.6703 12.5603 27.7703 12.6003 27.8203 12.6303H27.8403C28.0403 12.7403 28.2203 12.9103 28.3203 13.1103C28.3503 13.1703 28.3903 13.2803 28.4203 13.5803C28.4403 13.8903 28.4403 14.3003 28.4403 14.9403V25.5203C28.4403 26.1603 28.4403 26.5603 28.4203 26.8703C28.3903 27.1703 28.3503 27.2703 28.3203 27.3203V27.3403C28.2149 27.5469 28.0469 27.7149 27.8403 27.8203C27.7803 27.8503 27.6703 27.8903 27.3803 27.9203C27.0603 27.9403 26.6503 27.9403 26.0203 27.9403H15.4403C14.8003 27.9403 14.3903 27.9403 14.0803 27.9203C13.7803 27.8903 13.6803 27.8503 13.6303 27.8203H13.6203C13.41 27.7166 13.2383 27.5485 13.1303 27.3403C13.0686 27.1946 13.0347 27.0385 13.0303 26.8803C13.0103 26.5603 13.0103 26.1503 13.0103 25.5203V14.9403C13.0103 14.3003 13.0103 13.8903 13.0403 13.5803C13.0603 13.2803 13.1003 13.1803 13.1303 13.1303V13.1203C13.2403 12.9103 13.4103 12.7403 13.6103 12.6303C13.6703 12.6003 13.7803 12.5603 14.0803 12.5303C14.3903 12.5103 14.8003 12.5103 15.4403 12.5103H26.0203Z" fill="black" fill-opacity="0.85"/>
</g>
<defs>
<clipPath id="clip0_252_109">
<rect width="41" height="40" fill="white"/>
</clipPath>
</defs>
</svg>
