<svg width="102" height="102" viewBox="0 0 102 102" fill="none" xmlns="http://www.w3.org/2000/svg">
<path d="M0 20C0 8.9543 8.95431 0 20 0H82C93.0457 0 102 8.95431 102 20V82C102 93.0457 93.0457 102 82 102H20C8.9543 102 0 93.0457 0 82V20Z" fill="#11447F"/>
<g clip-path="url(#clip0_0_1)">
<path fill-rule="evenodd" clip-rule="evenodd" d="M46.247 30.6265C34.7228 31.8109 25.7338 41.5485 25.7338 53.3856C25.7338 66.0219 35.9776 76.2657 48.6139 76.2657C60.451 76.2657 70.1886 67.2767 71.373 55.7525H48.6139C47.3067 55.7525 46.247 54.6928 46.247 53.3856V30.6265ZM21 53.3856C21 38.1349 33.3631 25.7717 48.6139 25.7717C49.9211 25.7717 50.9808 26.8314 50.9808 28.1386V51.0187H73.8609C75.168 51.0187 76.2278 52.0784 76.2278 53.3856C76.2278 68.6363 63.8646 80.9995 48.6139 80.9995C33.3631 80.9995 21 68.6363 21 53.3856Z" fill="white"/>
<path fill-rule="evenodd" clip-rule="evenodd" d="M59.6596 27.1087V42.3401H74.8909C73.1141 34.8152 67.1845 28.8856 59.6596 27.1087ZM58.0754 22.0215C69.5006 23.4433 78.5564 32.499 79.9782 43.9243C80.1935 45.6539 78.7598 47.0739 77.0169 47.0739H56.5037C55.6322 47.0739 54.9258 46.3674 54.9258 45.4959V24.9828C54.9258 23.2398 56.3458 21.8062 58.0754 22.0215Z" fill="white"/>
</g>
<defs>
<clipPath id="clip0_0_1">
<rect width="59" height="59" fill="white" transform="translate(21 22)"/>
</clipPath>
</defs>
</svg>
