<svg width="63" height="54" viewBox="0 0 63 54" fill="none" xmlns="http://www.w3.org/2000/svg">
<path fill-rule="evenodd" clip-rule="evenodd" d="M31.5 0L54.3876 0.653238C58.4318 0.768664 61.7767 3.86775 62.2366 7.92529C63.2545 16.907 63.2545 25.9765 62.2366 34.9582C61.7767 39.0157 58.4318 42.1148 54.3876 42.2303L37.0068 42.7263V49.2354H47.2334C48.5367 49.2354 49.5934 50.302 49.5934 51.6177C49.5934 52.9335 48.5367 54 47.2334 54H15.7669C14.4635 54 13.4069 52.9335 13.4069 51.6177C13.4069 50.302 14.4635 49.2354 15.7669 49.2354H25.9935V42.7263L8.61248 42.2303C4.56836 42.1148 1.22341 39.0157 0.763514 34.9582C-0.254506 25.9765 -0.254506 16.907 0.76352 7.92529C1.22341 3.86775 4.56836 0.768664 8.61248 0.653238L31.5 0ZM31.5 4.76653L8.7459 5.41596C7.04922 5.46439 5.64584 6.7646 5.4529 8.46694C4.47567 17.0887 4.47567 25.7948 5.4529 34.4166C5.64584 36.1189 7.04922 37.4191 8.7459 37.4675L31.5 38.117L54.2543 37.4675C55.9509 37.4191 57.3543 36.1189 57.5473 34.4166C58.5245 25.7948 58.5245 17.0887 57.5473 8.46694C57.3543 6.7646 55.9509 5.46439 54.2543 5.41596L31.5 4.76653Z" fill="white"/>
</svg>
