<svg width="60" height="58" viewBox="0 0 60 58" fill="none" xmlns="http://www.w3.org/2000/svg">
<g clip-path="url(#clip0_131_218)">
<path fill-rule="evenodd" clip-rule="evenodd" d="M23.5442 0C16.4134 0 10.6328 5.76257 10.6328 12.871C10.6328 19.9796 16.4134 25.7421 23.5442 25.7421C30.675 25.7421 36.4556 19.9796 36.4556 12.871C36.4556 5.76257 30.675 0 23.5442 0ZM15.1898 12.871C15.1898 8.27147 18.9302 4.54272 23.5442 4.54272C28.1582 4.54272 31.8986 8.27147 31.8986 12.871C31.8986 17.4706 28.1582 21.1994 23.5442 21.1994C18.9302 21.1994 15.1898 17.4706 15.1898 12.871Z" fill="white"/>
<path d="M4.55696 41.6416C4.55696 37.8783 7.61727 34.8275 11.3924 34.8275H12.4279C12.508 34.8275 12.5876 34.8401 12.6637 34.8649L15.2931 35.7208C17.3575 36.3928 19.4839 36.806 21.6244 36.9605C22.0749 36.993 22.4702 36.6777 22.572 36.239C22.8016 35.2496 23.1007 34.2867 23.4638 33.3556C23.6241 32.9446 23.3229 32.4903 22.8807 32.477C20.7949 32.4144 18.7159 32.0562 16.7076 31.4024L14.0782 30.5466C13.5454 30.3731 12.9884 30.2848 12.4279 30.2848H11.3924C5.10055 30.2848 0 35.3694 0 41.6416V45.2403C0 47.5214 1.65838 49.4664 3.91678 49.834C10.4732 50.9011 17.0952 51.43 23.7167 51.4206C24.1788 51.4199 24.469 50.9224 24.2622 50.5105C23.8161 49.6218 23.4308 48.6976 23.1117 47.7432C22.941 47.2326 22.4715 46.8744 21.9318 46.8669C16.1513 46.7877 10.3752 46.2823 4.65105 45.3506C4.5968 45.3418 4.55696 45.2951 4.55696 45.2403V41.6416Z" fill="white"/>
<path d="M45.5687 36.493C45.5687 35.2386 44.5486 34.2217 43.2902 34.2217C42.0318 34.2217 41.0117 35.2386 41.0117 36.493V41.8617C41.0117 42.5884 41.3605 43.2712 41.9501 43.6986L44.988 45.9012C46.0057 46.639 47.4307 46.4147 48.1709 45.4002C48.911 44.3857 48.686 42.9651 47.6683 42.2273L45.5687 40.7051V36.493Z" fill="white"/>
<path fill-rule="evenodd" clip-rule="evenodd" d="M43.2909 57.6924C52.5189 57.6924 59.9997 50.235 59.9997 41.0358C59.9997 31.8366 52.5189 24.3792 43.2909 24.3792C34.0628 24.3792 26.582 31.8366 26.582 41.0358C26.582 50.235 34.0628 57.6924 43.2909 57.6924ZM43.2909 53.1497C50.0021 53.1497 55.4428 47.7261 55.4428 41.0358C55.4428 34.3454 50.0021 28.9219 43.2909 28.9219C36.5795 28.9219 31.1389 34.3454 31.1389 41.0358C31.1389 47.7261 36.5795 53.1497 43.2909 53.1497Z" fill="white"/>
</g>
<defs>
<clipPath id="clip0_131_218">
<rect width="60" height="58" fill="white"/>
</clipPath>
</defs>
</svg>
