<svg width="57" height="45" viewBox="0 0 57 45" fill="none" xmlns="http://www.w3.org/2000/svg">
<path fill-rule="evenodd" clip-rule="evenodd" d="M32.9086 11.4H2.44286C1.09371 11.4 0 10.3063 0 8.95716C0 7.60801 1.09371 6.51426 2.44286 6.51426H32.9086C33.9719 2.75472 37.4285 0 41.5286 0C45.6286 0 49.0852 2.75472 50.1485 6.51426H54.5572C55.9063 6.51426 57 7.60801 57 8.95716C57 10.3063 55.9063 11.4 54.5572 11.4H50.1485C49.0852 15.1595 45.6286 17.9143 41.5286 17.9143C37.4285 17.9143 33.9719 15.1595 32.9086 11.4ZM37.4572 8.95716C37.4572 6.70858 39.28 4.88572 41.5286 4.88572C43.7772 4.88572 45.6 6.70858 45.6 8.95716C45.6 11.2057 43.7772 13.0286 41.5286 13.0286C39.28 13.0286 37.4572 11.2057 37.4572 8.95716Z" fill="white"/>
<path fill-rule="evenodd" clip-rule="evenodd" d="M24.0914 37.4571H54.5572C55.9063 37.4571 57 36.3634 57 35.0142C57 33.6651 55.9063 32.5714 54.5572 32.5714H24.0914C23.0281 28.8118 19.5715 26.0571 15.4714 26.0571C11.3714 26.0571 7.91477 28.8118 6.85146 32.5714H2.44286C1.09371 32.5714 0 33.6651 0 35.0142C0 36.3634 1.09371 37.4571 2.44286 37.4571H6.85146C7.91477 41.2167 11.3714 43.9714 15.4714 43.9714C19.5715 43.9714 23.0281 41.2167 24.0914 37.4571ZM11.4 35.0142C11.4 32.7656 13.2228 30.9428 15.4714 30.9428C17.72 30.9428 19.5428 32.7656 19.5428 35.0142C19.5428 37.2628 17.72 39.0857 15.4714 39.0857C13.2228 39.0857 11.4 37.2628 11.4 35.0142Z" fill="white"/>
</svg>
