<svg width="102" height="102" viewBox="0 0 102 102" fill="none" xmlns="http://www.w3.org/2000/svg">
<path d="M0 20C0 8.9543 8.95431 0 20 0H82C93.0457 0 102 8.95431 102 20V82C102 93.0457 93.0457 102 82 102H20C8.9543 102 0 93.0457 0 82V20Z" fill="#11447F"/>
<g clip-path="url(#clip0_131_16)">
<path d="M38.0639 37.8833C39.3797 37.8833 40.4464 38.95 40.4464 40.2658V44.2366H44.4172C45.733 44.2366 46.7997 45.3033 46.7997 46.6191C46.7997 47.9349 45.733 49.0016 44.4172 49.0016H40.4464V52.9724C40.4464 54.2882 39.3797 55.3548 38.0639 55.3548C36.7481 55.3548 35.6814 54.2882 35.6814 52.9724V49.0016H31.7106C30.3948 49.0016 29.3281 47.9349 29.3281 46.6191C29.3281 45.3033 30.3948 44.2366 31.7106 44.2366H35.6814V40.2658C35.6814 38.95 36.7481 37.8833 38.0639 37.8833Z" fill="white"/>
<path d="M66.6521 52.1781C66.6521 50.4237 65.2299 49.0015 63.4754 49.0015C61.721 49.0015 60.2988 50.4237 60.2988 52.1781V52.9723C60.2988 54.7267 61.721 56.1489 63.4754 56.1489C65.2298 56.1489 66.6521 54.7267 66.6521 52.9723V52.1781Z" fill="white"/>
<path d="M63.4754 37.0891C65.2299 37.0891 66.6521 38.5113 66.6521 40.2657V41.0599C66.6521 42.8143 65.2298 44.2365 63.4754 44.2365C61.721 44.2365 60.2988 42.8143 60.2988 41.0599V40.2657C60.2988 38.5113 61.721 37.0891 63.4754 37.0891Z" fill="white"/>
<path d="M73.0068 46.6191C73.0068 48.3735 71.5846 49.7957 69.8301 49.7957H69.036C67.2816 49.7957 65.8594 48.3735 65.8594 46.6191C65.8594 44.8646 67.2816 43.4424 69.036 43.4424H69.8301C71.5846 43.4424 73.0068 44.8646 73.0068 46.6191Z" fill="white"/>
<path d="M57.9161 49.7957C59.6705 49.7957 61.0928 48.3735 61.0928 46.6191C61.0928 44.8646 59.6705 43.4424 57.9161 43.4424H57.122C55.3676 43.4424 53.9453 44.8646 53.9453 46.6191C53.9453 48.3735 55.3676 49.7957 57.122 49.7957H57.9161Z" fill="white"/>
<path fill-rule="evenodd" clip-rule="evenodd" d="M53.152 24.3825C53.152 23.0667 52.0854 22 50.7696 22C49.4538 22 48.3871 23.0667 48.3871 24.3825V29.1058C43.8156 29.1682 39.2459 29.4105 34.6887 29.8327L33.6353 29.9302C26.0377 30.634 20.1873 36.9432 20.058 44.5722L20.0196 46.8386C19.8693 55.7049 20.584 64.5647 22.1535 73.2923C22.9317 77.6194 26.6971 80.768 31.0935 80.768H31.7957C35.72 80.768 39.2757 78.4553 40.8668 74.8681L44.2359 67.2718C46.749 61.6056 54.7901 61.6056 57.3032 67.2718L60.6724 74.8681C62.2634 78.4553 65.8191 80.768 69.7434 80.768H70.4456C74.8421 80.768 78.6075 77.6194 79.3857 73.2923C80.9551 64.5647 81.6698 55.7049 81.5196 46.8386L81.4811 44.5722C81.3518 36.9432 75.5015 30.634 67.9039 29.9303L66.8505 29.8327C62.2933 29.4105 57.7236 29.1682 53.152 29.1058V24.3825ZM35.1282 34.5773C45.5335 33.6135 56.0057 33.6135 66.411 34.5773L67.4644 34.6749C72.6419 35.1545 76.6288 39.454 76.7168 44.653L76.7553 46.9193C76.9003 55.4759 76.2106 64.0262 74.6959 72.4489C74.3259 74.5061 72.5358 76.003 70.4456 76.003H69.7434C67.7035 76.003 65.8552 74.8009 65.0282 72.9362L61.659 65.3399C57.4705 55.8963 44.0686 55.8963 39.8801 65.3399L36.511 72.9362C35.6839 74.8009 33.8356 76.003 31.7957 76.003H31.0935C29.0033 76.003 27.2132 74.5061 26.8432 72.4489C25.3286 64.0262 24.6389 55.4759 24.7839 46.9194L24.8223 44.653C24.9104 39.454 28.8973 35.1545 34.0748 34.6749L35.1282 34.5773Z" fill="white"/>
</g>
<defs>
<clipPath id="clip0_131_16">
<rect width="61.5376" height="59" fill="white" transform="translate(20 22)"/>
</clipPath>
</defs>
</svg>

