<svg width="67" height="67" viewBox="0 0 67 67" fill="none" xmlns="http://www.w3.org/2000/svg">
<g clip-path="url(#clip0_131_203)">
<path fill-rule="evenodd" clip-rule="evenodd" d="M39.7138 21.2939C35.6167 20.836 31.3847 20.836 27.2876 21.2939C24.2021 21.6387 21.7018 24.0672 21.3364 27.1909C20.8462 31.3828 20.8462 35.6175 21.3364 39.8094C21.7018 42.933 24.2021 45.3616 27.2876 45.7064C31.3847 46.1643 35.6167 46.1643 39.7138 45.7064C42.7992 45.3616 45.2996 42.933 45.665 39.8094C46.1552 35.6175 46.1552 31.3828 45.665 27.1909C45.2996 24.0672 42.7992 21.6387 39.7138 21.2939ZM27.8601 26.4158C31.5767 26.0004 35.4247 26.0004 39.1413 26.4158C39.8836 26.4988 40.4639 27.0877 40.546 27.7896C40.9897 31.5837 40.9897 35.4166 40.546 39.2106C40.4639 39.9125 39.8836 40.5015 39.1413 40.5844C35.4247 40.9998 31.5767 40.9998 27.8601 40.5844C27.1177 40.5015 26.5375 39.9125 26.4554 39.2106C26.0116 35.4166 26.0116 31.5837 26.4554 27.7896C26.5375 27.0877 27.1177 26.4988 27.8601 26.4158Z" fill="white"/>
<path fill-rule="evenodd" clip-rule="evenodd" d="M46.3846 2.57692C46.3846 1.15373 45.2309 0 43.8077 0C42.3845 0 41.2308 1.15373 41.2308 2.57692V11.2478C39.5188 11.1276 37.7991 11.0475 36.0769 11.0074V6.01282C36.0769 4.58962 34.9232 3.4359 33.5 3.4359C32.0768 3.4359 30.9231 4.58962 30.9231 6.01282V11.0074C29.2009 11.0475 27.4813 11.1276 25.7692 11.2478V2.57692C25.7692 1.15373 24.6155 0 23.1923 0C21.7691 0 20.6154 1.15373 20.6154 2.57692V11.7577C16.1489 12.5713 12.584 16.1003 11.8123 20.6154H2.57692C1.15373 20.6154 0 21.7691 0 23.1923C0 24.6155 1.15373 25.7692 2.57692 25.7692H11.2952C11.1697 27.4854 11.0861 29.2039 11.0443 30.9231H6.01282C4.58962 30.9231 3.4359 32.0768 3.4359 33.5C3.4359 34.9232 4.58962 36.0769 6.01282 36.0769H11.0443C11.0861 37.7961 11.1697 39.5146 11.2952 41.2308H2.57692C1.15373 41.2308 0 42.3845 0 43.8077C0 45.2309 1.15373 46.3846 2.57692 46.3846H11.8123C12.584 50.8997 16.1489 54.4287 20.6154 55.2423V64.4231C20.6154 65.8463 21.7691 67 23.1923 67C24.6155 67 25.7692 65.8463 25.7692 64.4231V55.7521C27.4813 55.8724 29.2009 55.9525 30.9231 55.9925V60.9872C30.9231 62.4104 32.0768 63.5641 33.5 63.5641C34.9232 63.5641 36.0769 62.4104 36.0769 60.9872V55.9925C37.7991 55.9525 39.5188 55.8724 41.2308 55.7521V64.4231C41.2308 65.8463 42.3845 67 43.8077 67C45.2309 67 46.3846 65.8463 46.3846 64.4231V55.2423C50.8511 54.4287 54.416 50.8997 55.1877 46.3846H64.4231C65.8463 46.3846 67 45.2309 67 43.8077C67 42.3845 65.8463 41.2308 64.4231 41.2308H55.7048C55.8303 39.5146 55.9139 37.7961 55.9557 36.0769H60.9872C62.4104 36.0769 63.5641 34.9232 63.5641 33.5C63.5641 32.0768 62.4104 30.9231 60.9872 30.9231H55.9557C55.9139 29.2039 55.8303 27.4854 55.7048 25.7692H64.4231C65.8463 25.7692 67 24.6155 67 23.1923C67 21.7691 65.8463 20.6154 64.4231 20.6154H55.1878C54.416 16.1003 50.8511 12.5713 46.3846 11.7577V2.57692ZM21.9325 16.7704C29.556 15.9184 37.444 15.9184 45.0675 16.7704C47.7237 17.0673 49.8443 19.1649 50.1501 21.7796C51.0608 29.5666 51.0608 37.4333 50.1501 45.2204C49.8443 47.8351 47.7237 49.9327 45.0675 50.2296C37.444 51.0816 29.556 51.0816 21.9325 50.2296C19.2763 49.9327 17.1558 47.8351 16.85 45.2204C15.9392 37.4333 15.9392 29.5666 16.85 21.7796C17.1558 19.1649 19.2763 17.0673 21.9325 16.7704Z" fill="white"/>
</g>
<defs>
<clipPath id="clip0_131_203">
<rect width="67" height="67" fill="white"/>
</clipPath>
</defs>
</svg>
