<svg width="61" height="52" viewBox="0 0 61 52" fill="none" xmlns="http://www.w3.org/2000/svg">
<mask id="path-1-outside-1_131_125" maskUnits="userSpaceOnUse" x="0" y="0" width="61" height="53" fill="black">
<rect fill="white" width="61" height="53"/>
<path d="M6.78104 22.8027C21.545 16.3113 31.3897 12.0316 36.3158 9.9637C50.3802 4.06 53.3028 3.03441 55.2077 3.00033C55.6266 2.99322 56.5633 3.09798 57.1702 3.59478C57.6825 4.01442 57.8234 4.58127 57.8909 4.97896C57.9584 5.37686 58.0424 6.28306 57.9755 6.99105C57.2133 15.0728 53.9157 34.6854 52.2377 43.7372C51.5278 47.5673 50.13 48.8515 48.7767 48.9772C45.8357 49.2503 43.6023 47.0157 40.7539 45.1312C36.2964 42.1826 33.7784 40.3468 29.4516 37.4695C24.4515 34.1441 27.6929 32.3164 30.5425 29.3293C31.2882 28.5477 44.2464 16.6525 44.4973 15.5736C44.5286 15.4385 44.5578 14.9355 44.2617 14.6699C43.9655 14.4044 43.5285 14.4951 43.2131 14.5673C42.7661 14.6697 35.6453 19.4196 21.8508 28.817C19.8296 30.2177 17.9989 30.9 16.3587 30.8643C14.5504 30.8249 11.0721 29.8326 8.48625 28.9843C5.31465 27.9437 2.79383 27.3938 3.01332 25.6267C3.12766 24.7063 4.38352 23.765 6.78104 22.8027Z"/>
</mask>
<path d="M6.78104 22.8027L7.89845 25.5869L7.94379 25.5687L7.98853 25.549L6.78104 22.8027ZM36.3158 9.9637L35.1547 7.19752L35.1547 7.19754L36.3158 9.9637ZM55.2077 3.00033L55.1568 0.000761032L55.1541 0.000810385L55.2077 3.00033ZM57.1702 3.59478L59.0711 1.27391L59.0704 1.27336L57.1702 3.59478ZM57.8909 4.97896L60.8487 4.47735L60.8486 4.47709L57.8909 4.97896ZM57.9755 6.99105L54.9888 6.70905L54.9888 6.70937L57.9755 6.99105ZM52.2377 43.7372L49.288 43.1904L49.288 43.1904L52.2377 43.7372ZM48.7767 48.9772L49.0541 51.9644L49.0541 51.9644L48.7767 48.9772ZM40.7539 45.1312L42.4093 42.6292L42.409 42.6291L40.7539 45.1312ZM29.4516 37.4695L27.7903 39.9675L27.7904 39.9675L29.4516 37.4695ZM30.5425 29.3293L28.3719 27.2584L28.3719 27.2585L30.5425 29.3293ZM44.4973 15.5736L47.4194 16.2531L47.4198 16.251L44.4973 15.5736ZM43.2131 14.5673L42.5442 11.6428L42.5428 11.6431L43.2131 14.5673ZM21.8508 28.817L20.1618 26.3377L20.1519 26.3444L20.1421 26.3513L21.8508 28.817ZM16.3587 30.8643L16.424 27.865L16.4239 27.865L16.3587 30.8643ZM8.48625 28.9843L7.55097 31.8348L7.55114 31.8349L8.48625 28.9843ZM3.01332 25.6267L0.0362053 25.2569L0.0362027 25.2569L3.01332 25.6267ZM7.98853 25.549C22.7564 19.0558 32.5781 14.7864 37.477 12.7299L35.1547 7.19754C30.2014 9.27685 20.3335 13.5668 5.57355 20.0565L7.98853 25.549ZM37.477 12.7299C44.5202 9.77342 48.7027 8.06862 51.3532 7.09794C54.0561 6.10808 54.8527 6.00716 55.2614 5.99985L55.1541 0.000810385C53.6579 0.0275795 52.0407 0.456498 49.2899 1.46388C46.4868 2.49044 42.1759 4.25028 35.1547 7.19752L37.477 12.7299ZM55.2586 5.9999C55.241 6.0002 55.2371 5.9997 55.2461 6.00012C55.2543 6.00051 55.2691 6.00147 55.289 6.00358C55.3087 6.00568 55.3306 6.0086 55.3532 6.01242C55.3758 6.01624 55.3967 6.02054 55.4151 6.02497C55.4335 6.02942 55.4466 6.03333 55.4542 6.03584C55.462 6.03839 55.4608 6.03842 55.4518 6.03442C55.4428 6.03046 55.4221 6.02074 55.3923 6.00297C55.3625 5.98518 55.32 5.95721 55.2699 5.91619L59.0704 1.27336C58.2904 0.63486 57.4283 0.338468 56.8218 0.192205C56.1968 0.041476 55.6035 -0.00681925 55.1568 0.000762463L55.2586 5.9999ZM55.2692 5.91564C55.0997 5.77681 55.0006 5.61481 54.953 5.507C54.9146 5.41998 54.9162 5.38099 54.9332 5.48083L60.8486 4.47709C60.7504 3.89813 60.4542 2.40674 59.0711 1.27391L55.2692 5.91564ZM54.9331 5.48057C54.9447 5.54877 54.9724 5.76232 54.9886 6.04176C55.0049 6.32442 55.0026 6.56266 54.9888 6.70905L60.9622 7.27305C61.061 6.22682 60.9449 5.04487 60.8487 4.47735L54.9331 5.48057ZM54.9888 6.70937C54.2409 14.6397 50.9678 34.1283 49.288 43.1904L55.1875 44.284C56.8635 35.2425 60.1858 15.5059 60.9623 7.27272L54.9888 6.70937ZM49.288 43.1904C48.9775 44.8653 48.5713 45.6472 48.3424 45.9545C48.1749 46.1794 48.2217 46.0159 48.4994 45.9901L49.0541 51.9644C52.5702 51.6378 54.428 48.3814 55.1875 44.2839L49.288 43.1904ZM48.4994 45.9901C47.9223 46.0436 47.2809 45.8877 46.2605 45.2827C45.7421 44.9754 45.1968 44.5957 44.5436 44.1274C43.9199 43.6803 43.182 43.1404 42.4093 42.6292L39.0986 47.6331C39.7501 48.0642 40.3594 48.5103 41.0476 49.0037C41.7062 49.4759 42.437 49.9911 43.2007 50.4439C44.7443 51.3591 46.6902 52.1839 49.0541 51.9644L48.4994 45.9901ZM42.409 42.6291C40.2037 41.1703 38.4781 39.9868 36.7529 38.8011C35.0273 37.6153 33.2981 36.4245 31.1128 34.9714L27.7904 39.9675C29.932 41.3917 31.6251 42.5575 33.3546 43.746C35.0844 44.9348 36.8466 46.1435 39.0988 47.6333L42.409 42.6291ZM31.113 34.9714C30.5956 34.6274 30.2554 34.3488 30.0384 34.1376C29.8206 33.9255 29.7694 33.8226 29.7764 33.8362C29.7933 33.8687 29.8455 33.9947 29.8479 34.1816C29.8489 34.2658 29.8394 34.3374 29.8275 34.3909C29.816 34.4428 29.8042 34.4696 29.8048 34.4683C29.8412 34.3845 30.0146 34.1044 30.6161 33.4867C30.8943 33.201 31.199 32.9064 31.5653 32.5497C31.9183 32.2059 32.3154 31.8171 32.7132 31.4001L28.3719 27.2585C28.0572 27.5883 27.7297 27.91 27.3795 28.2509C27.0427 28.5789 26.6657 28.9431 26.3174 29.3008C25.666 29.9698 24.8072 30.9145 24.3021 32.0767C23.7093 33.4405 23.6365 35.0258 24.4474 36.5933C25.1485 37.9484 26.3819 39.0308 27.7903 39.9675L31.113 34.9714ZM32.7131 31.4002C32.7056 31.4081 32.7506 31.3624 32.8955 31.2234C33.0229 31.1014 33.1937 30.9394 33.4049 30.74C33.8271 30.3416 34.3913 29.8125 35.055 29.1897C36.3785 27.9479 38.0838 26.3468 39.7753 24.7346C41.4624 23.1266 43.1562 21.4882 44.4517 20.175C45.0953 19.5225 45.6703 18.9203 46.1049 18.4283C46.3187 18.1862 46.5341 17.9308 46.7158 17.6861C46.8058 17.5649 46.9169 17.4073 47.0225 17.228C47.0989 17.0982 47.3065 16.7385 47.4194 16.2531L41.5753 14.8941C41.6725 14.4762 41.8396 14.205 41.8522 14.1836C41.894 14.1127 41.9179 14.0831 41.8991 14.1085C41.8631 14.157 41.7736 14.2685 41.6076 14.4565C41.2826 14.8246 40.7983 15.3348 40.1802 15.9614C38.952 17.2064 37.3127 18.793 35.6357 20.3913C32.3893 23.4854 28.8068 26.8026 28.3719 27.2584L32.7131 31.4002ZM47.4198 16.251C47.5249 15.7978 47.5475 15.2599 47.4705 14.7351C47.3942 14.215 47.1479 13.2285 46.2644 12.4363L42.2589 16.9035C41.6716 16.3769 41.5588 15.7747 41.5341 15.6063C41.5168 15.4887 41.5143 15.3886 41.5173 15.3056C41.5195 15.2444 41.5274 15.1007 41.5748 14.8962L47.4198 16.251ZM46.2644 12.4363C45.3885 11.6509 44.3937 11.4971 43.7687 11.4921C43.1883 11.4874 42.6829 11.611 42.5442 11.6428L43.8819 17.4917C44.0586 17.4513 43.9294 17.4935 43.7205 17.4919C43.4669 17.4898 42.8387 17.4234 42.2589 16.9035L46.2644 12.4363ZM42.5428 11.6431C42.0554 11.7548 41.6434 11.9917 41.6392 11.9939C41.4968 12.0699 41.3432 12.159 41.1936 12.2484C40.8887 12.4306 40.489 12.6812 40.0072 12.9901C39.038 13.6115 37.6569 14.5205 35.8725 15.7108C32.2996 18.0941 27.0611 21.6376 20.1618 26.3377L23.5399 31.2964C30.4351 26.5991 35.6541 23.0689 39.202 20.7023C40.978 19.5176 42.3231 18.6326 43.2458 18.041C43.71 17.7433 44.0477 17.5325 44.2717 17.3987C44.3865 17.33 44.4452 17.2974 44.4629 17.2879C44.6188 17.2048 44.3148 17.3925 43.8833 17.4914L42.5428 11.6431ZM20.1421 26.3513C18.3954 27.5617 17.1868 27.8816 16.424 27.865L16.2933 33.8635C18.8111 33.9184 21.2637 32.8738 23.5596 31.2828L20.1421 26.3513ZM16.4239 27.865C15.8873 27.8533 14.8512 27.6739 13.45 27.3193C12.1191 26.9825 10.6729 26.5444 9.42137 26.1338L7.55114 31.8349C8.88543 32.2726 10.4713 32.7547 11.9781 33.136C13.4146 33.4995 15.0218 33.8359 16.2935 33.8635L16.4239 27.865ZM9.42154 26.1338C9.00867 25.9984 8.60792 25.8714 8.23905 25.7543C7.86436 25.6354 7.52534 25.5276 7.2079 25.4221C6.5546 25.2051 6.10661 25.0347 5.79561 24.8827C5.45767 24.7175 5.51834 24.6852 5.66534 24.8675C5.90582 25.1658 6.03867 25.6083 5.99044 25.9965L0.0362027 25.2569C-0.121767 26.5287 0.243877 27.7026 0.994387 28.6334C1.65142 29.4484 2.49936 29.9499 3.16065 30.2731C4.40718 30.8825 6.19973 31.3914 7.55097 31.8348L9.42154 26.1338ZM5.99044 25.9966C5.94192 26.3871 5.78854 26.6302 5.72927 26.7107C5.67687 26.7819 5.68329 26.7486 5.84027 26.631C6.16769 26.3855 6.80794 26.0245 7.89845 25.5869L5.66363 20.0186C4.35663 20.5432 3.17018 21.134 2.24171 21.8299C1.38797 22.4698 0.244604 23.5793 0.0362053 25.2569L5.99044 25.9966Z" fill="#11447F" mask="url(#path-1-outside-1_131_125)"/>
</svg>
