<svg width="70" height="44" viewBox="0 0 70 44" fill="none" xmlns="http://www.w3.org/2000/svg">
<path d="M35.3133 42.4966L35.3635 42.5H35.4138C37.6412 42.5 39.3106 42.2724 40.4159 41.536C41.7597 40.6407 41.9157 39.2872 41.9157 38.3005V32.0017C41.9157 31.5777 41.9361 31.2972 41.9661 31.1119C42.0402 31.1062 42.1384 31.1022 42.2666 31.1022C42.6828 31.1022 44.0541 31.2105 48.1692 35.1722C49.3267 36.3294 50.2454 37.3297 51.0199 38.1878C51.1669 38.3506 51.3103 38.5102 51.4504 38.6661C52.0368 39.3186 52.5644 39.9056 53.046 40.3896C53.6482 40.9948 54.2708 41.5361 54.9907 41.9163C55.7438 42.314 56.5339 42.5 57.4231 42.5H64.426C65.6125 42.5 66.8978 42.2114 67.7385 41.2354C68.631 40.1991 68.6423 38.8492 68.2606 37.6093L68.2247 37.4927L68.1704 37.3835C66.5992 34.2197 64.5244 31.3321 62.0272 28.8332C61.0919 27.743 59.8122 26.7214 58.785 25.911C58.7131 25.8543 58.6426 25.7987 58.5734 25.7442C58.117 25.3846 57.7181 25.0703 57.3843 24.7856C56.972 24.4339 56.7955 24.239 56.7479 24.1677L56.7175 24.122L56.6838 24.0787C56.5792 23.9444 56.5424 23.8639 56.5306 23.8318C56.5325 23.8257 56.5353 23.8174 56.5393 23.8067C56.5708 23.7235 56.6404 23.5937 56.8003 23.3593C56.8612 23.2699 56.9239 23.1814 56.9966 23.0788C57.0176 23.0491 57.0395 23.0182 57.0625 22.9857C57.1526 22.8582 57.2533 22.7142 57.3548 22.5602C61.1111 17.4521 64.3097 11.957 66.8961 6.16864L66.9354 6.08047L66.9632 5.98798C67.2315 5.09432 67.3821 3.8759 66.6565 2.85219C65.9147 1.80559 64.6506 1.50721 63.4257 1.50721H56.4694C55.5046 1.45265 54.5471 1.70886 53.7381 2.23907C52.9259 2.77133 52.3072 3.55095 51.9733 4.46198C49.8824 9.44989 47.0806 14.1093 43.6549 18.2955C42.8578 19.0899 42.376 19.5165 42.0253 19.7517C41.9934 19.773 41.9637 19.7921 41.9358 19.8092C41.9239 19.7144 41.9157 19.5973 41.9157 19.4542V5.55672C41.9157 4.59972 41.8009 3.52872 41.1736 2.70105C40.46 1.75955 39.3986 1.50721 38.4151 1.50721H27.4383C26.6126 1.48053 25.8073 1.7713 25.1889 2.32071C24.5609 2.87862 24.1751 3.65933 24.1136 4.4972L24.1095 4.55207V4.60708C24.1095 5.44915 24.4363 6.08858 24.7666 6.57192C24.9235 6.80148 25.0989 7.02077 25.2472 7.20534C25.259 7.22012 25.2708 7.23478 25.2825 7.24934C25.4264 7.42834 25.5574 7.59134 25.6898 7.77111C26.1976 8.46055 26.775 9.45437 26.9106 11.4549V21.7038C26.9106 22.1252 26.8953 22.4444 26.8702 22.685C26.6116 22.5092 26.2775 22.2224 25.8762 21.802C25.0411 20.9274 24.0487 19.6165 22.9937 17.9514C20.889 14.6298 18.6388 10.0633 16.9753 5.17376L16.9671 5.14966L16.9581 5.12585C16.5994 4.1782 16.1601 3.21697 15.4003 2.52752C14.5624 1.76725 13.5405 1.50721 12.4039 1.50721H5.40102C4.19558 1.50721 3.11193 1.79125 2.36247 2.58044C1.62144 3.36075 1.5 4.33152 1.5 5.00689V5.16672L1.53368 5.32296C3.36842 13.8347 5.71112 21.7755 11.3392 28.8088C13.8484 32.7734 18.7073 36.2355 22.4202 38.4601C26.3374 40.8072 30.7564 42.1906 35.3133 42.4966Z" stroke="#11447F" stroke-width="3"/>
</svg>
