<svg width="239" height="239" viewBox="0 0 239 239" fill="none" xmlns="http://www.w3.org/2000/svg">
<path d="M113.858 0.267677C113.858 0.386292 112.342 0.593857 110.529 0.682816C104.851 0.97934 95.9028 2.43232 89.9276 4.03356C83.2984 5.81272 82.6741 5.99064 76.9961 8.15528C67.4833 11.7432 58.3866 16.6656 50.0926 22.6258C34.2776 34.042 21.5839 48.8683 12.9926 66.0076C9.72258 72.5015 6.185 81.3676 4.93644 86.2603C4.69862 87.1795 4.16352 89.1959 3.77706 90.7379C2.7366 94.652 1.60695 101.087 1.04213 106.009C0.804305 108.292 0.447574 111.169 0.298936 112.384C-0.0577947 114.994 -0.0875223 118.611 0.239481 118.611C0.358391 118.611 5.20399 113.837 11.0306 107.996L21.6433 97.4097L22.2973 94.5927C24.5566 85.1928 29.5509 73.8062 35.2586 65.0883C48.9333 44.0943 69.9507 28.8528 93.9408 22.5071L97.3595 21.5879L107.764 11.0612C113.472 5.24932 118.228 0.415939 118.258 0.267677C118.317 0.119415 117.366 0.000801086 116.118 0.000801086C114.869 0.000801086 113.858 0.119415 113.858 0.267677Z" fill="white"/>
<path d="M120.396 0.237663C120.396 0.35627 125.183 5.21931 131.039 11.0312L141.652 21.6172L145.07 22.5068C155.98 25.3534 166.861 30.3944 176.433 36.9773C185.857 43.4416 195.459 53.049 201.939 62.4192C208.687 72.1453 213.89 83.443 216.565 94.0883L217.338 97.1128L227.951 107.699C233.777 113.54 238.653 118.314 238.772 118.314C239.099 118.314 239.069 115.349 238.712 112.562C238.534 111.227 238.147 107.877 237.82 105.089C235.621 86.4379 228.962 68.6166 218.379 52.9304C206.071 34.6644 188.086 19.5415 168.109 10.6457C164.096 8.86658 156.218 5.90131 153.989 5.36757C153.424 5.21931 151.432 4.68555 149.559 4.18147C143.495 2.52091 134.458 1.00863 128.661 0.682449C126.728 0.593491 125.153 0.385925 125.153 0.237663C125.153 0.119049 124.083 0.000442505 122.775 0.000442505C121.467 0.000442505 120.396 0.0894012 120.396 0.237663Z" fill="white"/>
<path d="M79.0742 119.945V154.49H86.5061H93.938V134.178C93.938 122.999 94.0272 113.866 94.1758 113.866C94.2947 113.866 95.8703 116.327 97.6837 119.293C99.4971 122.258 103.718 129.167 107.078 134.623C110.437 140.079 113.499 145.12 113.885 145.802L114.599 147.077H118.196H121.793L128.481 135.868C132.197 129.73 136.686 122.199 138.529 119.115C140.343 116.06 141.948 113.57 142.126 113.57C142.275 113.57 142.394 117.78 142.394 124.185C142.394 130.027 142.483 139.249 142.602 144.646L142.78 154.49H150.212H157.644L157.466 130.857C157.347 117.869 157.258 102.331 157.258 96.3118V85.3996H150.658H144.029L143.316 86.6747C142.929 87.3567 140.67 91.1819 138.292 95.185C135.913 99.1881 132.911 104.259 131.603 106.453C130.295 108.647 127.649 113.066 125.747 116.238C123.844 119.411 121.436 123.474 120.396 125.223C119.385 126.973 118.434 128.307 118.285 128.188C118.166 128.07 113.558 120.479 108.059 111.346C102.529 102.213 96.7621 92.6348 95.2163 90.0551L92.3922 85.3996H85.7332H79.0742V119.945Z" fill="white"/>
<path d="M227.685 131.183L217.101 141.888L216.447 144.675C214.426 153.096 209.878 163.771 204.675 172.133C199.592 180.377 190.911 190.37 183.658 196.36C172.243 205.819 159.519 212.461 145.815 216.197L142.545 217.087L131.783 227.821C125.838 233.722 120.992 238.644 120.992 238.763C120.992 238.911 121.735 239 122.627 239C123.519 239 124.262 238.852 124.262 238.703C124.262 238.526 125.214 238.407 126.492 238.407C131.218 238.407 142.872 236.568 149.382 234.789C151.195 234.285 153.157 233.781 153.752 233.633C154.376 233.485 155.387 233.188 155.982 232.951C156.606 232.714 158.122 232.18 159.341 231.735C171.916 227.228 182.855 221.149 193.528 212.728C198.373 208.873 208.421 198.939 212.048 194.373C227.001 175.573 235.622 154.52 237.941 131.361C238.565 125.104 238.803 120.389 238.505 120.449C238.386 120.449 233.511 125.312 227.685 131.183Z" fill="white"/>
<path d="M0 122.524C0 123.562 0.11891 125.401 0.297276 126.617C0.445914 127.832 0.802645 130.709 1.04047 132.992C1.81338 139.871 2.82412 144.942 5.1726 153.6C5.41042 154.49 6.21306 156.892 6.92653 158.938C11.6235 172.104 17.8365 183.194 26.7251 194.373C30.5005 199.147 40.1917 208.754 45.1859 212.698C60.1092 224.559 77.3512 232.625 95.5742 236.302C100.479 237.31 106.365 238.14 109.784 238.318C111.538 238.407 112.965 238.615 112.965 238.733C112.965 238.881 114.094 239 115.492 239C116.889 239 118.019 238.911 118.019 238.763C118.019 238.644 113.173 233.722 107.257 227.851C96.9714 217.62 96.4065 217.116 94.9796 216.79C87.3099 215.011 76.9647 210.83 69.4139 206.471C55.7095 198.554 42.8077 186.129 34.5137 172.815C29.133 164.246 24.3469 153.067 22.2957 144.467L21.6714 141.888L11.0587 131.272C5.23205 125.46 0.356731 120.686 0.237821 120.686C0.0891827 120.686 0 121.516 0 122.524Z" fill="white"/>
</svg>
