<svg width="1005" height="184" viewBox="0 0 1005 190" fill="none" xmlns="http://www.w3.org/2000/svg">
<g filter="url(#filter0_b_252_47)">
<mask id="path-1-outside-1_252_47" maskUnits="userSpaceOnUse" x="-2" y="-2" width="1009" height="188" fill="black">
<rect fill="white" x="-2" y="-2" width="1009" height="188"/>
<path d="M149.089 0.739994V140H117.65V58.0265L119.022 34.711L113.641 61.4025L90.22 128.817H59.3085L35.993 61.4025L30.718 34.711L32.0895 58.0265V140H0.545012V0.739994H44.855L72.918 93.6855L74.817 104.763L76.716 93.6855L104.779 0.739994H149.089ZM218.037 112.253L241.458 53.3845H272.897L213.395 183.888H181.323L201.368 140L165.181 53.3845H197.148L218.037 112.253ZM385.739 117.317C389.748 117.317 393.053 116.649 395.656 115.313C398.258 113.906 400.016 112.781 400.931 111.937L415.595 133.67C414.47 134.584 412.536 135.78 409.793 137.257C407.05 138.664 403.603 139.895 399.454 140.95C395.374 142.005 390.697 142.532 385.422 142.532C375.505 142.532 366.784 140.668 359.258 136.94C351.733 133.142 345.86 127.797 341.64 120.904C337.49 114.012 335.415 105.923 335.415 96.6395C335.415 87.2852 337.49 79.1968 341.64 72.3745C345.86 65.5522 351.733 60.2772 359.258 56.5495C366.784 52.7515 375.505 50.8525 385.422 50.8525C390.627 50.8525 395.269 51.4152 399.348 52.5405C403.498 53.5955 406.979 54.8263 409.793 56.233C412.606 57.5693 414.575 58.7298 415.701 59.7145L400.72 81.6585C400.227 81.1662 399.313 80.4628 397.977 79.5485C396.711 78.6342 395.058 77.8253 393.018 77.122C390.979 76.4187 388.552 76.067 385.739 76.067C382.292 76.067 379.057 76.9462 376.033 78.7045C373.079 80.4628 370.687 82.8893 368.859 85.984C367.03 89.0787 366.116 92.6305 366.116 96.6395C366.116 100.648 367.03 104.235 368.859 107.4C370.687 110.495 373.079 112.922 376.033 114.68C379.057 116.438 382.292 117.317 385.739 117.317ZM472.73 142.532C463.235 142.532 454.795 140.598 447.41 136.729C440.095 132.791 434.328 127.41 430.108 120.588C425.958 113.695 423.884 105.818 423.884 96.956C423.884 88.094 425.958 80.2167 430.108 73.324C434.328 66.361 440.095 60.875 447.41 56.866C454.795 52.857 463.235 50.8525 472.73 50.8525C482.225 50.8525 490.595 52.857 497.839 56.866C505.083 60.875 510.745 66.361 514.825 73.324C518.904 80.2167 520.944 88.094 520.944 96.956C520.944 105.818 518.904 113.695 514.825 120.588C510.745 127.41 505.083 132.791 497.839 136.729C490.595 140.598 482.225 142.532 472.73 142.532ZM472.73 116.157C476.387 116.157 479.552 115.348 482.225 113.73C484.898 112.113 486.973 109.827 488.45 106.873C489.927 103.919 490.665 100.578 490.665 96.8505C490.665 93.0525 489.927 89.6765 488.45 86.7225C486.973 83.7685 484.898 81.4475 482.225 79.7595C479.552 78.0715 476.387 77.2275 472.73 77.2275C469.073 77.2275 465.873 78.0715 463.13 79.7595C460.457 81.4475 458.347 83.7685 456.8 86.7225C455.323 89.6765 454.584 93.0525 454.584 96.8505C454.584 100.578 455.323 103.919 456.8 106.873C458.347 109.827 460.457 112.113 463.13 113.73C465.873 115.348 469.073 116.157 472.73 116.157ZM568.018 93.4745C568.018 100.367 569.319 105.888 571.921 110.038C574.524 114.117 578.884 116.157 585.003 116.157C591.263 116.157 595.659 114.117 598.191 110.038C600.793 105.888 602.094 100.367 602.094 93.4745V53.3845H633.744V96.8505C633.744 106.134 631.81 114.223 627.942 121.115C624.144 127.938 618.623 133.213 611.378 136.94C604.134 140.668 595.342 142.532 585.003 142.532C574.735 142.532 565.978 140.668 558.734 136.94C551.49 133.213 545.968 127.938 542.17 121.115C538.372 114.223 536.473 106.134 536.473 96.8505V53.3845H568.018V93.4745ZM682.56 140H650.488V53.3845H682.56V66.783H682.032C682.595 65.1653 683.966 63.1257 686.147 60.664C688.327 58.132 691.386 55.8813 695.325 53.912C699.264 51.8723 704.082 50.8525 709.779 50.8525C713.788 50.8525 717.48 51.4855 720.856 52.7515C724.232 53.9472 726.694 55.1077 728.241 56.233L715.792 82.2915C714.807 81.0958 713.049 79.865 710.517 78.599C708.055 77.2627 704.961 76.5945 701.233 76.5945C696.943 76.5945 693.391 77.6847 690.578 79.865C687.835 82.0453 685.795 84.6828 684.459 87.7775C683.193 90.8722 682.56 93.791 682.56 96.534V140ZM774.27 50.8525C779.967 50.8525 785.172 51.3448 789.884 52.3295C794.597 53.2438 798.535 54.2988 801.7 55.4945C804.936 56.6902 807.011 57.6748 807.925 58.4485L797.48 77.333C796.144 76.3483 793.647 75.0823 789.99 73.535C786.403 71.9877 782.394 71.214 777.963 71.214C774.587 71.214 771.738 71.7415 769.417 72.7965C767.096 73.7812 765.936 75.3637 765.936 77.544C765.936 79.7243 767.202 81.4827 769.734 82.819C772.336 84.085 776.064 85.2103 780.917 86.195C785.137 87.039 789.427 88.3753 793.788 90.204C798.149 92.0327 801.771 94.7405 804.654 98.3275C807.608 101.844 809.085 106.556 809.085 112.464C809.085 118.513 807.784 123.507 805.182 127.445C802.58 131.384 799.133 134.444 794.843 136.624C790.553 138.804 785.911 140.317 780.917 141.161C775.923 142.075 771.07 142.532 766.358 142.532C759.747 142.532 753.979 141.934 749.056 140.739C744.203 139.543 740.264 138.171 737.24 136.624C734.216 135.077 732.106 133.846 730.91 132.931L741.249 111.831C743.078 113.379 746.067 115.137 750.216 117.106C754.366 119.005 758.762 119.955 763.404 119.955C767.905 119.955 771.387 119.287 773.848 117.95C776.31 116.614 777.541 114.856 777.541 112.675C777.541 110.917 776.943 109.51 775.747 108.455C774.552 107.4 772.864 106.486 770.683 105.712C768.503 104.939 765.866 104.235 762.771 103.602C759.958 103.04 756.968 102.161 753.803 100.965C750.638 99.7693 747.649 98.1517 744.836 96.112C742.023 94.002 739.737 91.3645 737.978 88.1995C736.22 85.0345 735.341 81.2013 735.341 76.7C735.341 70.9327 737.205 66.15 740.932 62.352C744.66 58.554 749.478 55.7055 755.386 53.8065C761.294 51.8372 767.589 50.8525 774.27 50.8525ZM851.642 103.497C851.853 106.592 852.837 109.335 854.596 111.726C856.354 114.117 858.78 116.016 861.875 117.423C865.04 118.759 868.768 119.427 873.058 119.427C877.137 119.427 880.795 119.005 884.03 118.161C887.336 117.317 890.184 116.262 892.576 114.996C895.037 113.73 896.936 112.429 898.273 111.093L910.722 130.927C908.963 132.826 906.466 134.69 903.231 136.519C900.066 138.277 895.881 139.719 890.677 140.844C885.472 141.969 878.896 142.532 870.948 142.532C861.383 142.532 852.872 140.738 845.417 137.151C837.962 133.564 832.089 128.289 827.799 121.326C823.508 114.363 821.363 105.853 821.363 95.7955C821.363 87.3555 823.192 79.7595 826.849 73.0075C830.577 66.1852 835.957 60.8047 842.991 56.866C850.024 52.857 858.499 50.8525 868.416 50.8525C877.841 50.8525 885.999 52.5757 892.892 56.022C899.855 59.4683 905.2 64.6027 908.928 71.425C912.726 78.177 914.625 86.617 914.625 96.745C914.625 97.3077 914.59 98.433 914.52 100.121C914.52 101.809 914.449 102.934 914.309 103.497H851.642ZM884.452 86.7225C884.382 84.4718 883.784 82.2563 882.659 80.076C881.533 77.8253 879.845 75.9967 877.595 74.59C875.344 73.113 872.46 72.3745 868.944 72.3745C865.427 72.3745 862.438 73.0778 859.976 74.4845C857.585 75.8208 855.756 77.5792 854.49 79.7595C853.224 81.9398 852.521 84.2608 852.38 86.7225H884.452ZM970.022 50.8525C975.719 50.8525 980.924 51.3448 985.636 52.3295C990.349 53.2438 994.287 54.2988 997.452 55.4945C1000.69 56.6902 1002.76 57.6748 1003.68 58.4485L993.232 77.333C991.896 76.3483 989.399 75.0823 985.742 73.535C982.155 71.9877 978.146 71.214 973.715 71.214C970.339 71.214 967.49 71.7415 965.169 72.7965C962.848 73.7812 961.688 75.3637 961.688 77.544C961.688 79.7243 962.954 81.4827 965.486 82.819C968.088 84.085 971.816 85.2103 976.669 86.195C980.889 87.039 985.179 88.3753 989.54 90.204C993.901 92.0327 997.523 94.7405 1000.41 98.3275C1003.36 101.844 1004.84 106.556 1004.84 112.464C1004.84 118.513 1003.54 123.507 1000.93 127.445C998.332 131.384 994.885 134.444 990.595 136.624C986.305 138.804 981.663 140.317 976.669 141.161C971.675 142.075 966.822 142.532 962.11 142.532C955.499 142.532 949.731 141.934 944.808 140.739C939.955 139.543 936.016 138.171 932.992 136.624C929.968 135.077 927.858 133.846 926.662 132.931L937.001 111.831C938.83 113.379 941.819 115.137 945.968 117.106C950.118 119.005 954.514 119.955 959.156 119.955C963.657 119.955 967.139 119.287 969.6 117.95C972.062 116.614 973.293 114.856 973.293 112.675C973.293 110.917 972.695 109.51 971.499 108.455C970.304 107.4 968.616 106.486 966.435 105.712C964.255 104.939 961.618 104.235 958.523 103.602C955.71 103.04 952.72 102.161 949.555 100.965C946.39 99.7693 943.401 98.1517 940.588 96.112C937.775 94.002 935.489 91.3645 933.73 88.1995C931.972 85.0345 931.093 81.2013 931.093 76.7C931.093 70.9327 932.957 66.15 936.684 62.352C940.412 58.554 945.23 55.7055 951.138 53.8065C957.046 51.8372 963.341 50.8525 970.022 50.8525Z"/>
</mask>
<path d="M149.089 0.739994V140H117.65V58.0265L119.022 34.711L113.641 61.4025L90.22 128.817H59.3085L35.993 61.4025L30.718 34.711L32.0895 58.0265V140H0.545012V0.739994H44.855L72.918 93.6855L74.817 104.763L76.716 93.6855L104.779 0.739994H149.089ZM218.037 112.253L241.458 53.3845H272.897L213.395 183.888H181.323L201.368 140L165.181 53.3845H197.148L218.037 112.253ZM385.739 117.317C389.748 117.317 393.053 116.649 395.656 115.313C398.258 113.906 400.016 112.781 400.931 111.937L415.595 133.67C414.47 134.584 412.536 135.78 409.793 137.257C407.05 138.664 403.603 139.895 399.454 140.95C395.374 142.005 390.697 142.532 385.422 142.532C375.505 142.532 366.784 140.668 359.258 136.94C351.733 133.142 345.86 127.797 341.64 120.904C337.49 114.012 335.415 105.923 335.415 96.6395C335.415 87.2852 337.49 79.1968 341.64 72.3745C345.86 65.5522 351.733 60.2772 359.258 56.5495C366.784 52.7515 375.505 50.8525 385.422 50.8525C390.627 50.8525 395.269 51.4152 399.348 52.5405C403.498 53.5955 406.979 54.8263 409.793 56.233C412.606 57.5693 414.575 58.7298 415.701 59.7145L400.72 81.6585C400.227 81.1662 399.313 80.4628 397.977 79.5485C396.711 78.6342 395.058 77.8253 393.018 77.122C390.979 76.4187 388.552 76.067 385.739 76.067C382.292 76.067 379.057 76.9462 376.033 78.7045C373.079 80.4628 370.687 82.8893 368.859 85.984C367.03 89.0787 366.116 92.6305 366.116 96.6395C366.116 100.648 367.03 104.235 368.859 107.4C370.687 110.495 373.079 112.922 376.033 114.68C379.057 116.438 382.292 117.317 385.739 117.317ZM472.73 142.532C463.235 142.532 454.795 140.598 447.41 136.729C440.095 132.791 434.328 127.41 430.108 120.588C425.958 113.695 423.884 105.818 423.884 96.956C423.884 88.094 425.958 80.2167 430.108 73.324C434.328 66.361 440.095 60.875 447.41 56.866C454.795 52.857 463.235 50.8525 472.73 50.8525C482.225 50.8525 490.595 52.857 497.839 56.866C505.083 60.875 510.745 66.361 514.825 73.324C518.904 80.2167 520.944 88.094 520.944 96.956C520.944 105.818 518.904 113.695 514.825 120.588C510.745 127.41 505.083 132.791 497.839 136.729C490.595 140.598 482.225 142.532 472.73 142.532ZM472.73 116.157C476.387 116.157 479.552 115.348 482.225 113.73C484.898 112.113 486.973 109.827 488.45 106.873C489.927 103.919 490.665 100.578 490.665 96.8505C490.665 93.0525 489.927 89.6765 488.45 86.7225C486.973 83.7685 484.898 81.4475 482.225 79.7595C479.552 78.0715 476.387 77.2275 472.73 77.2275C469.073 77.2275 465.873 78.0715 463.13 79.7595C460.457 81.4475 458.347 83.7685 456.8 86.7225C455.323 89.6765 454.584 93.0525 454.584 96.8505C454.584 100.578 455.323 103.919 456.8 106.873C458.347 109.827 460.457 112.113 463.13 113.73C465.873 115.348 469.073 116.157 472.73 116.157ZM568.018 93.4745C568.018 100.367 569.319 105.888 571.921 110.038C574.524 114.117 578.884 116.157 585.003 116.157C591.263 116.157 595.659 114.117 598.191 110.038C600.793 105.888 602.094 100.367 602.094 93.4745V53.3845H633.744V96.8505C633.744 106.134 631.81 114.223 627.942 121.115C624.144 127.938 618.623 133.213 611.378 136.94C604.134 140.668 595.342 142.532 585.003 142.532C574.735 142.532 565.978 140.668 558.734 136.94C551.49 133.213 545.968 127.938 542.17 121.115C538.372 114.223 536.473 106.134 536.473 96.8505V53.3845H568.018V93.4745ZM682.56 140H650.488V53.3845H682.56V66.783H682.032C682.595 65.1653 683.966 63.1257 686.147 60.664C688.327 58.132 691.386 55.8813 695.325 53.912C699.264 51.8723 704.082 50.8525 709.779 50.8525C713.788 50.8525 717.48 51.4855 720.856 52.7515C724.232 53.9472 726.694 55.1077 728.241 56.233L715.792 82.2915C714.807 81.0958 713.049 79.865 710.517 78.599C708.055 77.2627 704.961 76.5945 701.233 76.5945C696.943 76.5945 693.391 77.6847 690.578 79.865C687.835 82.0453 685.795 84.6828 684.459 87.7775C683.193 90.8722 682.56 93.791 682.56 96.534V140ZM774.27 50.8525C779.967 50.8525 785.172 51.3448 789.884 52.3295C794.597 53.2438 798.535 54.2988 801.7 55.4945C804.936 56.6902 807.011 57.6748 807.925 58.4485L797.48 77.333C796.144 76.3483 793.647 75.0823 789.99 73.535C786.403 71.9877 782.394 71.214 777.963 71.214C774.587 71.214 771.738 71.7415 769.417 72.7965C767.096 73.7812 765.936 75.3637 765.936 77.544C765.936 79.7243 767.202 81.4827 769.734 82.819C772.336 84.085 776.064 85.2103 780.917 86.195C785.137 87.039 789.427 88.3753 793.788 90.204C798.149 92.0327 801.771 94.7405 804.654 98.3275C807.608 101.844 809.085 106.556 809.085 112.464C809.085 118.513 807.784 123.507 805.182 127.445C802.58 131.384 799.133 134.444 794.843 136.624C790.553 138.804 785.911 140.317 780.917 141.161C775.923 142.075 771.07 142.532 766.358 142.532C759.747 142.532 753.979 141.934 749.056 140.739C744.203 139.543 740.264 138.171 737.24 136.624C734.216 135.077 732.106 133.846 730.91 132.931L741.249 111.831C743.078 113.379 746.067 115.137 750.216 117.106C754.366 119.005 758.762 119.955 763.404 119.955C767.905 119.955 771.387 119.287 773.848 117.95C776.31 116.614 777.541 114.856 777.541 112.675C777.541 110.917 776.943 109.51 775.747 108.455C774.552 107.4 772.864 106.486 770.683 105.712C768.503 104.939 765.866 104.235 762.771 103.602C759.958 103.04 756.968 102.161 753.803 100.965C750.638 99.7693 747.649 98.1517 744.836 96.112C742.023 94.002 739.737 91.3645 737.978 88.1995C736.22 85.0345 735.341 81.2013 735.341 76.7C735.341 70.9327 737.205 66.15 740.932 62.352C744.66 58.554 749.478 55.7055 755.386 53.8065C761.294 51.8372 767.589 50.8525 774.27 50.8525ZM851.642 103.497C851.853 106.592 852.837 109.335 854.596 111.726C856.354 114.117 858.78 116.016 861.875 117.423C865.04 118.759 868.768 119.427 873.058 119.427C877.137 119.427 880.795 119.005 884.03 118.161C887.336 117.317 890.184 116.262 892.576 114.996C895.037 113.73 896.936 112.429 898.273 111.093L910.722 130.927C908.963 132.826 906.466 134.69 903.231 136.519C900.066 138.277 895.881 139.719 890.677 140.844C885.472 141.969 878.896 142.532 870.948 142.532C861.383 142.532 852.872 140.738 845.417 137.151C837.962 133.564 832.089 128.289 827.799 121.326C823.508 114.363 821.363 105.853 821.363 95.7955C821.363 87.3555 823.192 79.7595 826.849 73.0075C830.577 66.1852 835.957 60.8047 842.991 56.866C850.024 52.857 858.499 50.8525 868.416 50.8525C877.841 50.8525 885.999 52.5757 892.892 56.022C899.855 59.4683 905.2 64.6027 908.928 71.425C912.726 78.177 914.625 86.617 914.625 96.745C914.625 97.3077 914.59 98.433 914.52 100.121C914.52 101.809 914.449 102.934 914.309 103.497H851.642ZM884.452 86.7225C884.382 84.4718 883.784 82.2563 882.659 80.076C881.533 77.8253 879.845 75.9967 877.595 74.59C875.344 73.113 872.46 72.3745 868.944 72.3745C865.427 72.3745 862.438 73.0778 859.976 74.4845C857.585 75.8208 855.756 77.5792 854.49 79.7595C853.224 81.9398 852.521 84.2608 852.38 86.7225H884.452ZM970.022 50.8525C975.719 50.8525 980.924 51.3448 985.636 52.3295C990.349 53.2438 994.287 54.2988 997.452 55.4945C1000.69 56.6902 1002.76 57.6748 1003.68 58.4485L993.232 77.333C991.896 76.3483 989.399 75.0823 985.742 73.535C982.155 71.9877 978.146 71.214 973.715 71.214C970.339 71.214 967.49 71.7415 965.169 72.7965C962.848 73.7812 961.688 75.3637 961.688 77.544C961.688 79.7243 962.954 81.4827 965.486 82.819C968.088 84.085 971.816 85.2103 976.669 86.195C980.889 87.039 985.179 88.3753 989.54 90.204C993.901 92.0327 997.523 94.7405 1000.41 98.3275C1003.36 101.844 1004.84 106.556 1004.84 112.464C1004.84 118.513 1003.54 123.507 1000.93 127.445C998.332 131.384 994.885 134.444 990.595 136.624C986.305 138.804 981.663 140.317 976.669 141.161C971.675 142.075 966.822 142.532 962.11 142.532C955.499 142.532 949.731 141.934 944.808 140.739C939.955 139.543 936.016 138.171 932.992 136.624C929.968 135.077 927.858 133.846 926.662 132.931L937.001 111.831C938.83 113.379 941.819 115.137 945.968 117.106C950.118 119.005 954.514 119.955 959.156 119.955C963.657 119.955 967.139 119.287 969.6 117.95C972.062 116.614 973.293 114.856 973.293 112.675C973.293 110.917 972.695 109.51 971.499 108.455C970.304 107.4 968.616 106.486 966.435 105.712C964.255 104.939 961.618 104.235 958.523 103.602C955.71 103.04 952.72 102.161 949.555 100.965C946.39 99.7693 943.401 98.1517 940.588 96.112C937.775 94.002 935.489 91.3645 933.73 88.1995C931.972 85.0345 931.093 81.2013 931.093 76.7C931.093 70.9327 932.957 66.15 936.684 62.352C940.412 58.554 945.23 55.7055 951.138 53.8065C957.046 51.8372 963.341 50.8525 970.022 50.8525Z" fill="white" fill-opacity="0.01"/>
<path d="M149.089 0.739994H151.089V-1.26001H149.089V0.739994ZM149.089 140V142H151.089V140H149.089ZM117.65 140H115.65V142H117.65V140ZM117.65 58.0265L115.654 57.9091L115.65 57.9677V58.0265H117.65ZM119.022 34.711L121.018 34.8284L117.061 34.3158L119.022 34.711ZM113.641 61.4025L115.53 62.0588L115.575 61.9307L115.602 61.7977L113.641 61.4025ZM90.22 128.817V130.817H91.6425L92.1093 129.473L90.22 128.817ZM59.3085 128.817L57.4183 129.471L57.884 130.817H59.3085V128.817ZM35.993 61.4025L34.031 61.7903L34.0577 61.9257L34.1029 62.0562L35.993 61.4025ZM30.718 34.711L32.6801 34.3232L28.7215 34.8284L30.718 34.711ZM32.0895 58.0265H34.0895V57.9677L34.0861 57.9091L32.0895 58.0265ZM32.0895 140V142H34.0895V140H32.0895ZM0.545013 140H-1.45499V142H0.545013V140ZM0.545013 0.739994V-1.26001H-1.45499V0.739994H0.545013ZM44.855 0.739994L46.7697 0.16191L46.3403 -1.26001H44.855V0.739994ZM72.918 93.6855L74.8893 93.3476L74.8683 93.2257L74.8326 93.1074L72.918 93.6855ZM74.817 104.763L72.8458 105.101H76.7883L74.817 104.763ZM76.716 93.6855L74.8014 93.1074L74.7656 93.2257L74.7448 93.3476L76.716 93.6855ZM104.779 0.739994V-1.26001H103.294L102.864 0.16191L104.779 0.739994ZM147.089 0.739994V140H151.089V0.739994H147.089ZM149.089 138H117.65V142H149.089V138ZM119.65 140V58.0265H115.65V140H119.65ZM119.647 58.1439L121.018 34.8284L117.025 34.5936L115.654 57.9091L119.647 58.1439ZM117.061 34.3158L111.68 61.0073L115.602 61.7977L120.982 35.1062L117.061 34.3158ZM111.752 60.7461L88.3308 128.161L92.1093 129.473L115.53 62.0588L111.752 60.7461ZM90.22 126.817H59.3085V130.817H90.22V126.817ZM61.1987 128.163L37.8831 60.7488L34.1029 62.0562L57.4183 129.471L61.1987 128.163ZM37.9551 61.0147L32.6801 34.3232L28.756 35.0988L34.031 61.7903L37.9551 61.0147ZM28.7215 34.8284L30.093 58.1439L34.0861 57.9091L32.7146 34.5936L28.7215 34.8284ZM30.0895 58.0265V140H34.0895V58.0265H30.0895ZM32.0895 138H0.545013V142H32.0895V138ZM2.54501 140V0.739994H-1.45499V140H2.54501ZM0.545013 2.73999H44.855V-1.26001H0.545013V2.73999ZM42.9404 1.31808L71.0034 94.2636L74.8326 93.1074L46.7697 0.16191L42.9404 1.31808ZM70.9468 94.0234L72.8458 105.101L76.7883 104.425L74.8893 93.3476L70.9468 94.0234ZM76.7883 105.101L78.6873 94.0234L74.7448 93.3476L72.8458 104.425L76.7883 105.101ZM78.6307 94.2636L106.694 1.31808L102.864 0.16191L74.8014 93.1074L78.6307 94.2636ZM104.779 2.73999H149.089V-1.26001H104.779V2.73999ZM218.037 112.254L216.152 112.922L217.93 117.933L219.895 112.993L218.037 112.254ZM241.458 53.3845V51.3845H240.101L239.599 52.6452L241.458 53.3845ZM272.897 53.3845L274.716 54.2142L276.007 51.3845H272.897V53.3845ZM213.395 183.888V185.888H214.681L215.214 184.718L213.395 183.888ZM181.323 183.888L179.503 183.057L178.21 185.888H181.323V183.888ZM201.368 140L203.187 140.831L203.55 140.036L203.213 139.229L201.368 140ZM165.181 53.3845V51.3845H162.178L163.336 54.1555L165.181 53.3845ZM197.148 53.3845L199.032 52.7157L198.56 51.3845H197.148V53.3845ZM219.895 112.993L243.316 54.1238L239.599 52.6452L216.178 111.514L219.895 112.993ZM241.458 55.3845H272.897V51.3845H241.458V55.3845ZM271.077 52.5548L211.575 183.058L215.214 184.718L274.716 54.2142L271.077 52.5548ZM213.395 181.888H181.323V185.888H213.395V181.888ZM183.142 184.719L203.187 140.831L199.548 139.169L179.503 183.057L183.142 184.719ZM203.213 139.229L167.026 52.6135L163.336 54.1555L199.522 140.771L203.213 139.229ZM165.181 55.3845H197.148V51.3845H165.181V55.3845ZM195.263 54.0533L216.152 112.922L219.921 111.585L199.032 52.7157L195.263 54.0533ZM395.656 115.313L396.569 117.092L396.588 117.082L396.607 117.072L395.656 115.313ZM400.931 111.937L402.589 110.818L401.286 108.887L399.574 110.467L400.931 111.937ZM415.595 133.67L416.856 135.222L418.277 134.068L417.253 132.551L415.595 133.67ZM409.793 137.257L410.705 139.037L410.723 139.027L410.741 139.018L409.793 137.257ZM399.454 140.949L398.961 139.011L398.953 139.013L399.454 140.949ZM359.258 136.941L358.357 138.726L358.364 138.729L358.37 138.733L359.258 136.941ZM341.64 120.904L339.926 121.936L339.93 121.942L339.934 121.949L341.64 120.904ZM341.64 72.3745L339.939 71.3224L339.935 71.3288L339.931 71.3352L341.64 72.3745ZM359.258 56.5495L360.146 58.3417L360.153 58.3384L360.159 58.335L359.258 56.5495ZM399.348 52.5405L398.816 54.4685L398.836 54.4739L398.855 54.4788L399.348 52.5405ZM409.793 56.233L408.898 58.0219L408.916 58.0309L408.935 58.0396L409.793 56.233ZM415.701 59.7145L417.352 60.8422L418.353 59.3773L417.018 58.2093L415.701 59.7145ZM400.72 81.6585L399.305 83.0727L401.011 84.7785L402.371 82.7862L400.72 81.6585ZM397.977 79.5485L396.806 81.1699L396.826 81.1847L396.847 81.1991L397.977 79.5485ZM393.018 77.122L393.67 75.2313L393.018 77.122ZM376.033 78.7045L375.027 76.9755L375.019 76.9807L375.01 76.9859L376.033 78.7045ZM368.859 85.984L370.581 87.0015L368.859 85.984ZM368.859 107.4L367.127 108.401L367.132 108.41L367.137 108.418L368.859 107.4ZM376.033 114.68L375.01 116.399L375.019 116.404L375.027 116.409L376.033 114.68ZM385.739 119.317C389.954 119.317 393.599 118.617 396.569 117.092L394.742 113.534C392.507 114.681 389.542 115.317 385.739 115.317V119.317ZM396.607 117.072C399.21 115.665 401.17 114.438 402.287 113.407L399.574 110.467C398.863 111.124 397.306 112.148 394.705 113.554L396.607 117.072ZM399.273 113.056L413.937 134.789L417.253 132.551L402.589 110.818L399.273 113.056ZM414.334 132.118C413.365 132.905 411.573 134.027 408.844 135.496L410.741 139.018C413.499 137.533 415.575 136.263 416.856 135.222L414.334 132.118ZM408.88 135.477C406.311 136.795 403.017 137.98 398.961 139.011L399.946 142.888C404.19 141.809 407.788 140.532 410.705 139.037L408.88 135.477ZM398.953 139.013C395.072 140.017 390.569 140.532 385.422 140.532V144.532C390.826 144.532 395.677 143.992 399.954 142.886L398.953 139.013ZM385.422 140.532C375.758 140.532 367.35 138.717 360.146 135.148L358.37 138.733C366.218 142.62 375.253 144.532 385.422 144.532V140.532ZM360.159 135.155C352.951 131.517 347.363 126.422 343.345 119.86L339.934 121.949C344.357 129.173 350.515 134.768 358.357 138.726L360.159 135.155ZM343.353 119.873C339.418 113.337 337.415 105.617 337.415 96.6395H333.415C333.415 106.23 335.562 114.687 339.926 121.936L343.353 119.873ZM337.415 96.6395C337.415 87.5881 339.42 79.8727 343.348 73.4138L339.931 71.3352C335.56 78.521 333.415 86.9823 333.415 96.6395H337.415ZM343.341 73.4266C347.355 66.9374 352.939 61.9116 360.146 58.3417L358.37 54.7573C350.526 58.6427 344.365 64.167 339.939 71.3224L343.341 73.4266ZM360.159 58.335C367.36 54.7009 375.763 52.8525 385.422 52.8525V48.8525C375.247 48.8525 366.208 50.8021 358.357 54.764L360.159 58.335ZM385.422 52.8525C390.487 52.8525 394.945 53.4004 398.816 54.4685L399.88 50.6125C395.593 49.4299 390.767 48.8525 385.422 48.8525V52.8525ZM398.855 54.4788C402.912 55.5103 406.25 56.6975 408.898 58.0219L410.687 54.4441C407.709 52.9552 404.083 51.6807 399.841 50.6022L398.855 54.4788ZM408.935 58.0396C411.721 59.363 413.478 60.4271 414.384 61.2197L417.018 58.2093C415.673 57.0325 413.491 55.7757 410.651 54.4264L408.935 58.0396ZM414.049 58.5868L399.068 80.5308L402.371 82.7862L417.352 60.8422L414.049 58.5868ZM402.134 80.2443C401.498 79.6084 400.446 78.8149 399.106 77.8979L396.847 81.1991C398.18 82.1108 398.957 82.724 399.305 83.0727L402.134 80.2443ZM399.148 77.9271C397.675 76.8637 395.83 75.976 393.67 75.2313L392.366 79.0127C394.286 79.6747 395.746 80.4046 396.806 81.1699L399.148 77.9271ZM393.67 75.2313C391.368 74.4374 388.71 74.067 385.739 74.067V78.067C388.394 78.067 390.589 78.3999 392.366 79.0127L393.67 75.2313ZM385.739 74.067C381.934 74.067 378.352 75.0425 375.027 76.9755L377.038 80.4335C379.762 78.8499 382.651 78.067 385.739 78.067V74.067ZM375.01 76.9859C371.754 78.9236 369.128 81.5969 367.137 84.9665L370.581 87.0015C372.247 84.1817 374.403 82.002 377.056 80.4231L375.01 76.9859ZM367.137 84.9665C365.106 88.4039 364.116 92.3149 364.116 96.6395H368.116C368.116 92.9461 368.954 89.7535 370.581 87.0015L367.137 84.9665ZM364.116 96.6395C364.116 100.965 365.106 104.903 367.127 108.401L370.59 106.4C368.954 103.568 368.116 100.332 368.116 96.6395H364.116ZM367.137 108.418C369.128 111.788 371.754 114.461 375.01 116.399L377.056 112.961C374.403 111.382 372.247 109.203 370.581 106.383L367.137 108.418ZM375.027 116.409C378.352 118.342 381.934 119.317 385.739 119.317V115.317C382.651 115.317 379.762 114.535 377.038 112.951L375.027 116.409ZM447.41 136.73L446.462 138.49L446.472 138.496L446.482 138.501L447.41 136.73ZM430.108 120.588L428.395 121.62L428.401 121.63L428.407 121.64L430.108 120.588ZM430.108 73.324L428.398 72.2874L428.395 72.2924L430.108 73.324ZM447.41 56.866L446.456 55.1083L446.449 55.1121L447.41 56.866ZM497.839 56.866L498.807 55.1161L497.839 56.866ZM514.825 73.324L513.099 74.335L513.103 74.3426L514.825 73.324ZM514.825 120.588L516.541 121.614L516.546 121.607L514.825 120.588ZM497.839 136.73L498.781 138.494L498.788 138.49L498.794 138.487L497.839 136.73ZM482.225 113.73L481.189 112.02L482.225 113.73ZM488.45 106.873L486.661 105.979L488.45 106.873ZM488.45 86.7225L486.661 87.6169L488.45 86.7225ZM482.225 79.7595L481.157 81.4505V81.4505L482.225 79.7595ZM463.13 79.7595L462.081 78.0562L462.071 78.0623L462.062 78.0685L463.13 79.7595ZM456.8 86.7225L455.028 85.7945L455.019 85.8112L455.011 85.8281L456.8 86.7225ZM456.8 106.873L455.011 107.767L455.019 107.784L455.028 107.801L456.8 106.873ZM463.13 113.73L462.094 115.441L462.104 115.447L462.114 115.453L463.13 113.73ZM472.73 140.532C463.513 140.532 455.399 138.656 448.338 134.958L446.482 138.501C454.191 142.539 462.957 144.532 472.73 144.532V140.532ZM448.358 134.969C441.341 131.19 435.838 126.049 431.809 119.536L428.407 121.64C432.818 128.771 438.85 134.392 446.462 138.49L448.358 134.969ZM431.821 119.556C427.878 113.006 425.884 105.493 425.884 96.956H421.884C421.884 106.143 424.039 114.384 428.395 121.62L431.821 119.556ZM425.884 96.956C425.884 88.4195 427.878 80.9058 431.821 74.3556L428.395 72.2924C424.039 79.5276 421.884 87.7685 421.884 96.956H425.884ZM431.818 74.3606C435.852 67.706 441.357 62.4641 448.371 58.6199L446.449 55.1121C438.834 59.2859 432.805 65.016 428.398 72.2874L431.818 74.3606ZM448.364 58.6237C455.42 54.7934 463.524 52.8525 472.73 52.8525V48.8525C462.946 48.8525 454.17 50.9206 446.456 55.1083L448.364 58.6237ZM472.73 52.8525C481.937 52.8525 489.964 54.7937 496.871 58.6159L498.807 55.1161C491.226 50.9203 482.514 48.8525 472.73 48.8525V52.8525ZM496.871 58.6159C503.809 62.4558 509.206 67.6901 513.099 74.335L516.55 72.313C512.284 65.0318 506.357 59.2942 498.807 55.1161L496.871 58.6159ZM513.103 74.3426C516.981 80.8948 518.944 88.4132 518.944 96.956H522.944C522.944 87.7748 520.827 79.5385 516.546 72.3054L513.103 74.3426ZM518.944 96.956C518.944 105.499 516.981 113.017 513.103 119.569L516.546 121.607C520.827 114.373 522.944 106.137 522.944 96.956H518.944ZM513.108 119.562C509.219 126.065 503.826 131.198 496.884 134.972L498.794 138.487C506.341 134.384 512.271 128.756 516.541 121.614L513.108 119.562ZM496.897 134.965C489.985 138.656 481.948 140.532 472.73 140.532V144.532C482.502 144.532 491.205 142.539 498.781 138.494L496.897 134.965ZM472.73 118.157C476.689 118.157 480.226 117.278 483.261 115.441L481.189 112.02C478.879 113.418 476.085 114.157 472.73 114.157V118.157ZM483.261 115.441C486.275 113.617 488.603 111.039 490.238 107.767L486.661 105.979C485.343 108.615 483.52 110.609 481.189 112.02L483.261 115.441ZM490.238 107.767C491.871 104.502 492.665 100.848 492.665 96.8505H488.665C488.665 100.308 487.982 103.336 486.661 105.979L490.238 107.767ZM492.665 96.8505C492.665 92.7887 491.874 89.0987 490.238 85.8281L486.661 87.6169C487.979 90.2543 488.665 93.3163 488.665 96.8505H492.665ZM490.238 85.8281C488.606 82.5631 486.288 79.9603 483.293 78.0685L481.157 81.4505C483.507 82.9347 485.339 84.9739 486.661 87.6169L490.238 85.8281ZM483.293 78.0685C480.253 76.1486 476.705 75.2275 472.73 75.2275V79.2275C476.07 79.2275 478.852 79.9944 481.157 81.4505L483.293 78.0685ZM472.73 75.2275C468.754 75.2275 465.181 76.1489 462.081 78.0562L464.178 81.4628C466.564 79.9941 469.391 79.2275 472.73 79.2275V75.2275ZM462.062 78.0685C459.075 79.9549 456.729 82.5465 455.028 85.7945L458.571 87.6505C459.965 84.9905 461.839 82.9401 464.198 81.4505L462.062 78.0685ZM455.011 85.8281C453.375 89.0987 452.584 92.7887 452.584 96.8505H456.584C456.584 93.3163 457.27 90.2543 458.588 87.6169L455.011 85.8281ZM452.584 96.8505C452.584 100.848 453.378 104.502 455.011 107.767L458.588 105.979C457.267 103.336 456.584 100.308 456.584 96.8505H452.584ZM455.028 107.801C456.733 111.056 459.088 113.622 462.094 115.441L464.165 112.02C461.826 110.604 459.961 108.598 458.571 105.945L455.028 107.801ZM462.114 115.453C465.208 117.278 468.769 118.157 472.73 118.157V114.157C469.376 114.157 466.537 113.418 464.146 112.008L462.114 115.453ZM571.922 110.038L570.227 111.101L570.231 111.107L570.235 111.114L571.922 110.038ZM598.191 110.038L596.497 108.975L596.492 108.983L598.191 110.038ZM602.094 53.3845V51.3845H600.094V53.3845H602.094ZM633.745 53.3845H635.745V51.3845H633.745V53.3845ZM627.942 121.115L626.198 120.137L626.194 120.143L627.942 121.115ZM611.378 136.941L612.294 138.719L611.378 136.941ZM558.734 136.941L557.819 138.719L558.734 136.941ZM542.17 121.115L540.419 122.081L540.423 122.088L542.17 121.115ZM536.473 53.3845V51.3845H534.473V53.3845H536.473ZM568.018 53.3845H570.018V51.3845H568.018V53.3845ZM566.018 93.4745C566.018 100.597 567.359 106.528 570.227 111.101L573.616 108.975C571.279 105.249 570.018 100.138 570.018 93.4745H566.018ZM570.235 111.114C573.303 115.923 578.407 118.157 585.003 118.157V114.157C579.362 114.157 575.744 112.312 573.608 108.962L570.235 111.114ZM585.003 118.157C591.717 118.157 596.883 115.937 599.89 111.093L596.492 108.983C594.434 112.298 590.809 114.157 585.003 114.157V118.157ZM599.885 111.101C602.753 106.528 604.094 100.597 604.094 93.4745H600.094C600.094 100.138 598.834 105.249 596.497 108.975L599.885 111.101ZM604.094 93.4745V53.3845H600.094V93.4745H604.094ZM602.094 55.3845H633.745V51.3845H602.094V55.3845ZM631.745 53.3845V96.8505H635.745V53.3845H631.745ZM631.745 96.8505C631.745 105.852 629.871 113.591 626.198 120.137L629.686 122.094C633.749 114.854 635.745 106.417 635.745 96.8505H631.745ZM626.194 120.143C622.597 126.605 617.373 131.607 610.463 135.162L612.294 138.719C619.873 134.819 625.691 129.271 629.689 122.088L626.194 120.143ZM610.463 135.162C603.568 138.71 595.108 140.532 585.003 140.532V144.532C595.577 144.532 604.7 142.626 612.294 138.719L610.463 135.162ZM585.003 140.532C574.972 140.532 566.546 138.711 559.649 135.162L557.819 138.719C565.41 142.625 574.497 144.532 585.003 144.532V140.532ZM559.649 135.162C552.74 131.607 547.515 126.605 543.918 120.143L540.423 122.088C544.422 129.271 550.24 134.819 557.819 138.719L559.649 135.162ZM543.922 120.15C540.314 113.602 538.473 105.858 538.473 96.8505H534.473C534.473 106.411 536.431 114.843 540.419 122.081L543.922 120.15ZM538.473 96.8505V53.3845H534.473V96.8505H538.473ZM536.473 55.3845H568.018V51.3845H536.473V55.3845ZM566.018 53.3845V93.4745H570.018V53.3845H566.018ZM682.56 140V142H684.56V140H682.56ZM650.488 140H648.488V142H650.488V140ZM650.488 53.3845V51.3845H648.488V53.3845H650.488ZM682.56 53.3845H684.56V51.3845H682.56V53.3845ZM682.56 66.783V68.783H684.56V66.783H682.56ZM682.032 66.783L680.143 66.126L679.219 68.783H682.032V66.783ZM686.147 60.664L687.644 61.9901L687.653 61.9796L687.662 61.969L686.147 60.664ZM695.325 53.912L696.22 55.7009L696.232 55.6945L696.245 55.688L695.325 53.912ZM720.856 52.7515L720.154 54.6242L720.171 54.6306L720.188 54.6368L720.856 52.7515ZM728.241 56.233L730.046 57.0951L730.763 55.594L729.417 54.6155L728.241 56.233ZM715.792 82.2915L714.248 83.5629L716.244 85.9859L717.597 83.1536L715.792 82.2915ZM710.517 78.599L709.563 80.3567L709.593 80.3728L709.623 80.3879L710.517 78.599ZM690.578 79.865L689.353 78.2842L689.343 78.2917L689.333 78.2993L690.578 79.865ZM684.459 87.7775L682.623 86.9846L682.615 87.0024L682.608 87.0202L684.459 87.7775ZM682.56 138H650.488V142H682.56V138ZM652.488 140V53.3845H648.488V140H652.488ZM650.488 55.3845H682.56V51.3845H650.488V55.3845ZM680.56 53.3845V66.783H684.56V53.3845H680.56ZM682.56 64.783H682.032V68.783H682.56V64.783ZM683.921 67.44C684.351 66.2032 685.507 64.4027 687.644 61.9901L684.65 59.3379C682.426 61.8486 680.838 64.1275 680.143 66.126L683.921 67.44ZM687.662 61.969C689.624 59.6907 692.446 57.5874 696.22 55.7009L694.431 52.1231C690.327 54.1752 687.03 56.5733 684.631 59.3589L687.662 61.969ZM696.245 55.688C699.83 53.8314 704.313 52.8525 709.779 52.8525V48.8525C703.85 48.8525 698.698 49.9133 694.405 52.136L696.245 55.688ZM709.779 52.8525C713.575 52.8525 717.026 53.4513 720.154 54.6242L721.558 50.8788C717.934 49.5197 714.001 48.8525 709.779 48.8525V52.8525ZM720.188 54.6368C723.512 55.8137 725.755 56.8976 727.065 57.8505L729.417 54.6155C727.633 53.3177 724.953 52.0806 721.524 50.8662L720.188 54.6368ZM726.437 55.3709L713.988 81.4294L717.597 83.1536L730.046 57.0951L726.437 55.3709ZM717.336 81.0201C716.082 79.497 714.021 78.1147 711.412 76.8101L709.623 80.3879C712.078 81.6153 713.533 82.6946 714.248 83.5629L717.336 81.0201ZM711.471 76.8413C708.636 75.302 705.188 74.5945 701.233 74.5945V78.5945C704.734 78.5945 707.475 79.2233 709.563 80.3567L711.471 76.8413ZM701.233 74.5945C696.593 74.5945 692.584 75.7797 689.353 78.2842L691.803 81.4458C694.198 79.5896 697.292 78.5945 701.233 78.5945V74.5945ZM689.333 78.2993C686.343 80.6762 684.095 83.5754 682.623 86.9846L686.295 88.5704C687.495 85.7902 689.326 83.4144 691.822 81.4306L689.333 78.2993ZM682.608 87.0202C681.264 90.3041 680.56 93.4812 680.56 96.534H684.56C684.56 94.1008 685.121 91.4403 686.31 88.5348L682.608 87.0202ZM680.56 96.534V140H684.56V96.534H680.56ZM789.885 52.3295L789.475 54.2872L789.489 54.2901L789.504 54.2929L789.885 52.3295ZM801.7 55.4945L800.994 57.3654L801 57.368L801.007 57.3705L801.7 55.4945ZM807.925 58.4485L809.675 59.4165L810.469 57.9812L809.217 56.9217L807.925 58.4485ZM797.48 77.333L796.294 78.9431L798.128 80.2945L799.231 78.301L797.48 77.333ZM789.99 73.535L789.198 75.3715L789.211 75.3769L789.99 73.535ZM769.417 72.7965L770.199 74.6377L770.222 74.6277L770.245 74.6172L769.417 72.7965ZM769.734 82.819L768.8 84.5878L768.829 84.6031L768.859 84.6175L769.734 82.819ZM780.917 86.195L780.519 88.1551L780.525 88.1562L780.917 86.195ZM793.788 90.204L794.561 88.3596L793.788 90.204ZM804.654 98.3275L803.096 99.5806L803.109 99.5974L803.123 99.6139L804.654 98.3275ZM805.182 127.445L806.851 128.548L805.182 127.445ZM794.843 136.624L793.937 134.841L794.843 136.624ZM780.917 141.161L780.584 139.188L780.57 139.191L780.557 139.193L780.917 141.161ZM749.056 140.738L748.578 142.68L748.584 142.682L749.056 140.738ZM737.24 136.624L736.329 138.404L737.24 136.624ZM730.91 132.932L729.114 132.051L728.392 133.524L729.695 134.52L730.91 132.932ZM741.249 111.831L742.541 110.305L740.582 108.647L739.453 110.951L741.249 111.831ZM750.216 117.106L749.359 118.913L749.372 118.919L749.384 118.925L750.216 117.106ZM773.849 117.951L774.803 119.708L773.849 117.951ZM775.747 108.455L777.071 106.956V106.956L775.747 108.455ZM770.683 105.713L770.015 107.597L770.683 105.713ZM762.771 103.602L763.172 101.643L763.163 101.641L762.771 103.602ZM753.803 100.965L753.097 102.836L753.803 100.965ZM744.836 96.112L743.636 97.712L743.649 97.7217L743.662 97.7312L744.836 96.112ZM737.979 88.1995L739.727 87.2282L737.979 88.1995ZM740.932 62.352L739.505 60.9511L740.932 62.352ZM755.386 53.8065L755.998 55.7106L756.008 55.7073L756.018 55.7039L755.386 53.8065ZM774.271 52.8525C779.854 52.8525 784.919 53.3352 789.475 54.2872L790.294 50.3718C785.425 49.3544 780.081 48.8525 774.271 48.8525V52.8525ZM789.504 54.2929C794.147 55.1938 797.968 56.2225 800.994 57.3654L802.407 53.6236C799.103 52.3752 795.047 51.2938 790.265 50.3661L789.504 54.2929ZM801.007 57.3705C802.594 57.9568 803.861 58.4789 804.826 58.9366C805.822 59.4094 806.379 59.7601 806.633 59.9753L809.217 56.9217C808.557 56.3632 807.619 55.8348 806.541 55.3229C805.43 54.7959 804.042 54.2278 802.394 53.6185L801.007 57.3705ZM806.175 57.4805L795.73 76.365L799.231 78.301L809.675 59.4165L806.175 57.4805ZM798.667 75.7229C797.121 74.584 794.427 73.2405 790.769 71.6931L789.211 75.3769C792.868 76.9242 795.167 78.1126 796.294 78.9431L798.667 75.7229ZM790.782 71.6986C786.914 70.0298 782.63 69.214 777.963 69.214V73.214C782.158 73.214 785.892 73.9456 789.198 75.3714L790.782 71.6986ZM777.963 69.214C774.39 69.214 771.241 69.7709 768.59 70.9758L770.245 74.6172C772.236 73.7121 774.784 73.214 777.963 73.214V69.214ZM768.636 70.9553C767.237 71.549 766.039 72.3859 765.193 73.5391C764.334 74.7114 763.936 76.078 763.936 77.544H767.936C767.936 76.8296 768.118 76.3149 768.419 75.9046C768.734 75.4753 769.277 75.0287 770.199 74.6377L768.636 70.9553ZM763.936 77.544C763.936 80.7023 765.852 83.0314 768.8 84.5878L770.667 81.0502C768.552 79.9339 767.936 78.7464 767.936 77.544H763.936ZM768.859 84.6175C771.683 85.9912 775.6 87.157 780.519 88.1551L781.315 84.2349C776.528 83.2637 772.99 82.1787 770.609 81.0205L768.859 84.6175ZM780.525 88.1562C784.602 88.9716 788.765 90.2662 793.015 92.0484L794.561 88.3596C790.09 86.4844 785.672 85.1064 781.309 84.2338L780.525 88.1562ZM793.015 92.0484C797.077 93.752 800.426 96.2603 803.096 99.5806L806.213 97.0744C803.115 93.2207 799.22 90.3133 794.561 88.3596L793.015 92.0484ZM803.123 99.6139C805.696 102.677 807.085 106.89 807.085 112.465H811.085C811.085 106.223 809.521 101.011 806.186 97.0411L803.123 99.6139ZM807.085 112.465C807.085 118.231 805.846 122.812 803.513 126.343L806.851 128.548C809.722 124.202 811.085 118.796 811.085 112.465H807.085ZM803.513 126.343C801.106 129.987 797.925 132.814 793.937 134.841L795.749 138.407C800.342 136.073 804.053 132.782 806.851 128.548L803.513 126.343ZM793.937 134.841C789.836 136.925 785.388 138.376 780.584 139.188L781.25 143.133C786.433 142.257 791.269 140.684 795.749 138.407L793.937 134.841ZM780.557 139.193C775.673 140.087 770.941 140.532 766.358 140.532V144.532C771.2 144.532 776.174 144.062 781.277 143.128L780.557 139.193ZM766.358 140.532C759.86 140.532 754.258 139.944 749.528 138.795L748.584 142.682C753.7 143.925 759.633 144.532 766.358 144.532V140.532ZM749.534 138.797C744.768 137.622 740.99 136.296 738.151 134.844L736.329 138.404C739.539 140.047 743.638 141.463 748.578 142.68L749.534 138.797ZM738.151 134.844C735.135 133.3 733.165 132.139 732.125 131.343L729.695 134.52C731.046 135.553 733.297 136.853 736.329 138.404L738.151 134.844ZM732.706 133.812L743.045 112.712L739.453 110.951L729.114 132.051L732.706 133.812ZM739.957 113.358C741.989 115.077 745.168 116.924 749.359 118.913L751.074 115.3C746.965 113.35 744.167 111.68 742.541 110.305L739.957 113.358ZM749.384 118.925C753.8 120.946 758.48 121.955 763.404 121.955V117.955C759.044 117.955 754.933 117.065 751.049 115.288L749.384 118.925ZM763.404 121.955C768.057 121.955 771.922 121.272 774.803 119.708L772.894 116.193C770.852 117.302 767.753 117.955 763.404 117.955V121.955ZM774.803 119.708C777.695 118.138 779.541 115.804 779.541 112.675H775.541C775.541 113.907 774.926 115.09 772.894 116.193L774.803 119.708ZM779.541 112.675C779.541 110.409 778.744 108.432 777.071 106.956L774.424 109.955C775.142 110.589 775.541 111.425 775.541 112.675H779.541ZM777.071 106.956C775.618 105.674 773.674 104.651 771.352 103.828L770.015 107.597C772.054 108.321 773.486 109.127 774.424 109.955L777.071 106.956ZM771.352 103.828C769.059 103.014 766.327 102.288 763.172 101.643L762.37 105.562C765.404 106.183 767.947 106.864 770.015 107.597L771.352 103.828ZM763.163 101.641C760.474 101.103 757.591 100.258 754.51 99.0941L753.097 102.836C756.346 104.064 759.441 104.976 762.379 105.564L763.163 101.641ZM754.51 99.0941C751.516 97.9629 748.683 96.431 746.01 94.4928L743.662 97.7312C746.615 99.8723 749.761 101.576 753.097 102.836L754.51 99.0941ZM746.036 94.512C743.454 92.5757 741.353 90.1549 739.727 87.2282L736.23 89.1708C738.121 92.5741 740.591 95.4283 743.636 97.712L746.036 94.512ZM739.727 87.2282C738.169 84.4243 737.341 80.943 737.341 76.7H733.341C733.341 81.4597 734.271 85.6447 736.23 89.1708L739.727 87.2282ZM737.341 76.7C737.341 71.4084 739.032 67.1439 742.36 63.7529L739.505 60.9511C735.378 65.1561 733.341 70.457 733.341 76.7H737.341ZM742.36 63.7529C745.826 60.2219 750.347 57.5269 755.998 55.7106L754.774 51.9024C748.609 53.8841 743.495 56.8861 739.505 60.9511L742.36 63.7529ZM756.018 55.7039C761.708 53.8073 767.788 52.8525 774.271 52.8525V48.8525C767.39 48.8525 760.88 49.867 754.754 51.9091L756.018 55.7039ZM851.641 103.497V101.497H849.5L849.646 103.633L851.641 103.497ZM854.596 111.726L852.984 112.911L854.596 111.726ZM861.875 117.423L861.047 119.244L861.072 119.255L861.097 119.265L861.875 117.423ZM884.03 118.161L883.535 116.224L883.525 116.226L884.03 118.161ZM892.576 114.996L891.661 113.218L891.65 113.223L891.64 113.229L892.576 114.996ZM898.273 111.093L899.967 110.03L898.633 107.905L896.858 109.679L898.273 111.093ZM910.722 130.927L912.189 132.286L913.23 131.162L912.416 129.864L910.722 130.927ZM903.231 136.518L904.202 138.267L904.209 138.263L904.215 138.26L903.231 136.518ZM890.677 140.844L891.099 142.799L890.677 140.844ZM827.799 121.326L826.096 122.376L827.799 121.326ZM826.849 73.0075L825.094 72.0485L825.09 72.0549L826.849 73.0075ZM842.99 56.866L843.968 58.611L843.974 58.6073L843.981 58.6035L842.99 56.866ZM892.892 56.022L891.998 57.8109L892.005 57.8145L892.892 56.022ZM908.928 71.425L907.173 72.384L907.179 72.3948L907.185 72.4055L908.928 71.425ZM914.52 100.121L912.521 100.038L912.52 100.079V100.121H914.52ZM914.309 103.497V105.497H915.87L916.249 103.982L914.309 103.497ZM884.452 86.7225V88.7225H886.516L886.451 86.66L884.452 86.7225ZM882.659 80.076L880.87 80.9704L880.875 80.9819L880.881 80.9933L882.659 80.076ZM877.594 74.59L876.497 76.2621L876.516 76.2743L876.535 76.286L877.594 74.59ZM859.976 74.4845L860.952 76.2304L860.96 76.2257L860.968 76.221L859.976 74.4845ZM852.38 86.7225L850.383 86.6084L850.262 88.7225H852.38V86.7225ZM849.646 103.633C849.882 107.089 850.99 110.199 852.984 112.911L856.207 110.541C854.684 108.47 853.823 106.095 853.637 103.361L849.646 103.633ZM852.984 112.911C854.973 115.615 857.687 117.716 861.047 119.244L862.703 115.602C859.874 114.316 857.735 112.619 856.207 110.541L852.984 112.911ZM861.097 119.265C864.561 120.728 868.565 121.428 873.058 121.428V117.427C868.971 117.427 865.519 116.79 862.653 115.58L861.097 119.265ZM873.058 121.428C877.272 121.428 881.103 120.992 884.535 120.097L883.525 116.226C880.486 117.019 877.003 117.427 873.058 117.427V121.428ZM884.525 120.099C887.946 119.226 890.949 118.12 893.511 116.764L891.64 113.229C889.419 114.405 886.725 115.409 883.535 116.224L884.525 120.099ZM893.49 116.775C896.059 115.454 898.153 114.041 899.687 112.507L896.858 109.679C895.72 110.818 894.016 112.007 891.661 113.218L893.49 116.775ZM896.579 112.156L909.028 131.99L912.416 129.864L899.967 110.03L896.579 112.156ZM909.254 129.568C907.683 131.265 905.374 133.01 902.247 134.777L904.215 138.26C907.559 136.37 910.244 134.387 912.189 132.286L909.254 129.568ZM902.26 134.77C899.327 136.4 895.348 137.788 890.254 138.889L891.099 142.799C896.414 141.65 900.805 140.154 904.202 138.267L902.26 134.77ZM890.254 138.889C885.238 139.974 878.816 140.532 870.948 140.532V144.532C878.976 144.532 885.706 143.965 891.099 142.799L890.254 138.889ZM870.948 140.532C861.636 140.532 853.43 138.787 846.284 135.349L844.55 138.954C852.315 142.69 861.129 144.532 870.948 144.532V140.532ZM846.284 135.349C839.169 131.926 833.588 126.911 829.501 120.277L826.096 122.376C830.589 129.668 836.754 135.203 844.55 138.954L846.284 135.349ZM829.501 120.277C825.446 113.695 823.363 105.568 823.363 95.7955H819.363C819.363 106.139 821.571 115.032 826.096 122.376L829.501 120.277ZM823.363 95.7955C823.363 87.6545 825.124 80.3913 828.608 73.9601L825.09 72.0549C821.259 79.1277 819.363 87.0565 819.363 95.7955H823.363ZM828.604 73.9665C832.145 67.4866 837.25 62.3731 843.968 58.611L842.013 55.121C834.665 59.2362 829.009 64.8837 825.094 72.0485L828.604 73.9665ZM843.981 58.6035C850.652 54.8013 858.769 52.8525 868.416 52.8525V48.8525C858.229 48.8525 849.396 50.9127 842 55.1284L843.981 58.6035ZM868.416 52.8525C877.598 52.8525 885.438 54.5309 891.998 57.8108L893.786 54.2331C886.561 50.6204 878.083 48.8525 868.416 48.8525V52.8525ZM892.005 57.8145C898.6 61.0785 903.642 65.9217 907.173 72.384L910.683 70.466C906.759 63.2836 901.11 57.8581 893.779 54.2295L892.005 57.8145ZM907.185 72.4055C910.771 78.7799 912.625 86.8579 912.625 96.745H916.625C916.625 86.3761 914.682 77.574 910.671 70.4445L907.185 72.4055ZM912.625 96.745C912.625 97.2591 912.592 98.3428 912.521 100.038L916.518 100.204C916.588 98.5232 916.625 97.3563 916.625 96.745H912.625ZM912.52 100.121C912.52 101.846 912.44 102.726 912.368 103.012L916.249 103.982C916.459 103.142 916.52 101.772 916.52 100.121H912.52ZM914.309 101.497H851.641V105.497H914.309V101.497ZM886.451 86.66C886.371 84.0855 885.685 81.5798 884.436 79.1587L880.881 80.9933C881.882 82.9329 882.393 84.8582 882.453 86.785L886.451 86.66ZM884.447 79.1816C883.148 76.5834 881.199 74.4846 878.655 72.894L876.535 76.286C878.491 77.5088 879.918 79.0672 880.87 80.9704L884.447 79.1816ZM878.692 72.9179C876.029 71.1704 872.732 70.3745 868.943 70.3745V74.3745C872.188 74.3745 874.659 75.0556 876.497 76.2621L878.692 72.9179ZM868.943 70.3745C865.162 70.3745 861.812 71.1318 858.984 72.748L860.968 76.221C863.063 75.0239 865.692 74.3745 868.943 74.3745V70.3745ZM859 72.7386C856.324 74.2344 854.222 76.2379 852.76 78.7552L856.22 80.7638C857.29 78.9204 858.846 77.4073 860.952 76.2304L859 72.7386ZM852.76 78.7552C851.34 81.2008 850.542 83.8259 850.383 86.6084L854.377 86.8366C854.499 84.6958 855.108 82.6788 856.22 80.7638L852.76 78.7552ZM852.38 88.7225H884.452V84.7225H852.38V88.7225ZM985.636 52.3295L985.227 54.2872L985.241 54.2901L985.255 54.2929L985.636 52.3295ZM997.452 55.4945L996.746 57.3654L996.752 57.368L996.759 57.3705L997.452 55.4945ZM1003.68 58.4485L1005.43 59.4165L1006.22 57.9812L1004.97 56.9217L1003.68 58.4485ZM993.232 77.333L992.046 78.9431L993.88 80.2945L994.983 78.301L993.232 77.333ZM985.742 73.535L984.95 75.3715L984.963 75.3769L985.742 73.535ZM965.169 72.7965L965.951 74.6377L965.974 74.6277L965.997 74.6172L965.169 72.7965ZM965.486 82.819L964.552 84.5878L964.581 84.6031L964.611 84.6175L965.486 82.819ZM976.669 86.195L976.271 88.1551L976.277 88.1562L976.669 86.195ZM989.54 90.204L990.313 88.3596L989.54 90.204ZM1000.41 98.3275L998.848 99.5806L998.861 99.5974L998.875 99.6139L1000.41 98.3275ZM1000.93 127.445L1002.6 128.548L1000.93 127.445ZM990.595 136.624L989.689 134.841L990.595 136.624ZM976.669 141.161L976.336 139.188L976.322 139.191L976.309 139.193L976.669 141.161ZM944.808 140.738L944.329 142.68L944.336 142.682L944.808 140.738ZM932.992 136.624L932.081 138.404L932.992 136.624ZM926.662 132.932L924.866 132.051L924.144 133.524L925.447 134.52L926.662 132.932ZM937.001 111.831L938.293 110.305L936.334 108.647L935.205 110.951L937.001 111.831ZM945.968 117.106L945.111 118.913L945.124 118.919L945.136 118.925L945.968 117.106ZM969.6 117.951L970.555 119.708L969.6 117.951ZM971.499 108.455L972.823 106.956V106.956L971.499 108.455ZM966.435 105.713L965.767 107.597L966.435 105.713ZM958.523 103.602L958.924 101.643L958.915 101.641L958.523 103.602ZM949.555 100.965L948.849 102.836L949.555 100.965ZM940.588 96.112L939.388 97.712L939.401 97.7217L939.414 97.7312L940.588 96.112ZM933.73 88.1995L935.479 87.2282L933.73 88.1995ZM936.684 62.352L935.257 60.9511L936.684 62.352ZM951.138 53.8065L951.75 55.7106L951.76 55.7073L951.77 55.7039L951.138 53.8065ZM970.022 52.8525C975.606 52.8525 980.671 53.3352 985.227 54.2872L986.046 50.3718C981.177 49.3544 975.833 48.8525 970.022 48.8525V52.8525ZM985.255 54.2929C989.899 55.1938 993.72 56.2225 996.746 57.3654L998.159 53.6236C994.855 52.3752 990.799 51.2938 986.017 50.3661L985.255 54.2929ZM996.759 57.3705C998.346 57.9568 999.613 58.4789 1000.58 58.9366C1001.57 59.4094 1002.13 59.7601 1002.39 59.9753L1004.97 56.9217C1004.31 56.3632 1003.37 55.8348 1002.29 55.3229C1001.18 54.7959 999.794 54.2278 998.146 53.6185L996.759 57.3705ZM1001.93 57.4805L991.482 76.365L994.983 78.301L1005.43 59.4165L1001.93 57.4805ZM994.419 75.7229C992.873 74.584 990.179 73.2405 986.521 71.6931L984.963 75.3769C988.62 76.9242 990.919 78.1126 992.046 78.9431L994.419 75.7229ZM986.534 71.6986C982.666 70.0298 978.382 69.214 973.715 69.214V73.214C977.91 73.214 981.644 73.9456 984.95 75.3714L986.534 71.6986ZM973.715 69.214C970.142 69.214 966.993 69.7709 964.342 70.9758L965.997 74.6172C967.988 73.7121 970.536 73.214 973.715 73.214V69.214ZM964.388 70.9553C962.989 71.549 961.791 72.3859 960.945 73.5391C960.086 74.7114 959.688 76.078 959.688 77.544H963.688C963.688 76.8296 963.87 76.3149 964.171 75.9046C964.486 75.4753 965.029 75.0287 965.951 74.6377L964.388 70.9553ZM959.688 77.544C959.688 80.7023 961.604 83.0314 964.552 84.5878L966.419 81.0502C964.304 79.9339 963.688 78.7464 963.688 77.544H959.688ZM964.611 84.6175C967.435 85.9912 971.352 87.157 976.271 88.1551L977.067 84.2349C972.28 83.2637 968.742 82.1787 966.361 81.0205L964.611 84.6175ZM976.277 88.1562C980.354 88.9716 984.517 90.2662 988.766 92.0484L990.313 88.3596C985.842 86.4844 981.424 85.1064 977.061 84.2338L976.277 88.1562ZM988.766 92.0484C992.829 93.752 996.178 96.2603 998.848 99.5806L1001.97 97.0744C998.867 93.2207 994.972 90.3133 990.313 88.3596L988.766 92.0484ZM998.875 99.6139C1001.45 102.677 1002.84 106.89 1002.84 112.465H1006.84C1006.84 106.223 1005.27 101.011 1001.94 97.0411L998.875 99.6139ZM1002.84 112.465C1002.84 118.231 1001.6 122.812 999.265 126.343L1002.6 128.548C1005.47 124.202 1006.84 118.796 1006.84 112.465H1002.84ZM999.265 126.343C996.858 129.987 993.677 132.814 989.689 134.841L991.501 138.407C996.094 136.073 999.805 132.782 1002.6 128.548L999.265 126.343ZM989.689 134.841C985.588 136.925 981.14 138.376 976.336 139.188L977.002 143.133C982.185 142.257 987.021 140.684 991.501 138.407L989.689 134.841ZM976.309 139.193C971.425 140.087 966.693 140.532 962.11 140.532V144.532C966.952 144.532 971.926 144.062 977.029 143.128L976.309 139.193ZM962.11 140.532C955.612 140.532 950.01 139.944 945.28 138.795L944.336 142.682C949.452 143.925 955.385 144.532 962.11 144.532V140.532ZM945.286 138.797C940.52 137.622 936.742 136.296 933.903 134.844L932.081 138.404C935.291 140.047 939.39 141.463 944.329 142.68L945.286 138.797ZM933.903 134.844C930.886 133.3 928.917 132.139 927.877 131.343L925.447 134.52C926.798 135.553 929.049 136.853 932.081 138.404L933.903 134.844ZM928.458 133.812L938.797 112.712L935.205 110.951L924.866 132.051L928.458 133.812ZM935.709 113.358C937.741 115.077 940.92 116.924 945.111 118.913L946.826 115.3C942.717 113.35 939.919 111.68 938.293 110.305L935.709 113.358ZM945.136 118.925C949.552 120.946 954.232 121.955 959.156 121.955V117.955C954.796 117.955 950.685 117.065 946.801 115.288L945.136 118.925ZM959.156 121.955C963.809 121.955 967.674 121.272 970.555 119.708L968.646 116.193C966.604 117.302 963.505 117.955 959.156 117.955V121.955ZM970.555 119.708C973.447 118.138 975.293 115.804 975.293 112.675H971.293C971.293 113.907 970.678 115.09 968.646 116.193L970.555 119.708ZM975.293 112.675C975.293 110.409 974.496 108.432 972.823 106.956L970.176 109.955C970.894 110.589 971.293 111.425 971.293 112.675H975.293ZM972.823 106.956C971.37 105.674 969.426 104.651 967.104 103.828L965.767 107.597C967.806 108.321 969.238 109.127 970.176 109.955L972.823 106.956ZM967.104 103.828C964.811 103.014 962.079 102.288 958.924 101.643L958.122 105.562C961.156 106.183 963.699 106.864 965.767 107.597L967.104 103.828ZM958.915 101.641C956.226 101.103 953.343 100.258 950.262 99.0941L948.849 102.836C952.098 104.064 955.193 104.976 958.131 105.564L958.915 101.641ZM950.262 99.0941C947.268 97.9629 944.435 96.431 941.762 94.4928L939.414 97.7312C942.367 99.8723 945.513 101.576 948.849 102.836L950.262 99.0941ZM941.788 94.512C939.206 92.5757 937.105 90.1549 935.479 87.2282L931.982 89.1708C933.873 92.5741 936.343 95.4283 939.388 97.712L941.788 94.512ZM935.479 87.2282C933.921 84.4243 933.093 80.943 933.093 76.7H929.093C929.093 81.4597 930.023 85.6447 931.982 89.1708L935.479 87.2282ZM933.093 76.7C933.093 71.4084 934.784 67.1439 938.112 63.7529L935.257 60.9511C931.13 65.1561 929.093 70.457 929.093 76.7H933.093ZM938.112 63.7529C941.578 60.2219 946.099 57.5269 951.75 55.7106L950.526 51.9024C944.361 53.8841 939.247 56.8861 935.257 60.9511L938.112 63.7529ZM951.77 55.7039C957.46 53.8073 963.54 52.8525 970.022 52.8525V48.8525C963.141 48.8525 956.632 49.867 950.505 51.9091L951.77 55.7039Z" fill="white" fill-opacity="0.15" mask="url(#path-1-outside-1_252_47)"/>
</g>
<defs>
<filter id="filter0_b_252_47" x="-17.4551" y="-17.2598" width="1040.29" height="219.148" filterUnits="userSpaceOnUse" color-interpolation-filters="sRGB">
<feFlood flood-opacity="0" result="BackgroundImageFix"/>
<feGaussianBlur in="BackgroundImageFix" stdDeviation="9"/>
<feComposite in2="SourceAlpha" operator="in" result="effect1_backgroundBlur_252_47"/>
<feBlend mode="normal" in="SourceGraphic" in2="effect1_backgroundBlur_252_47" result="shape"/>
</filter>
</defs>
</svg>
